<?xml version="1.0" encoding="UTF-8"?>
<svg xmlns="http://www.w3.org/2000/svg" xmlns:xlink="http://www.w3.org/1999/xlink" viewBox="0 0 21.42 7.27">
  <defs>
    <style>
      .cls-1 {
        fill: url(#radial-gradient-10);
      }

      .cls-2 {
        fill: url(#linear-gradient-13);
      }

      .cls-3 {
        fill: url(#linear-gradient-2);
      }

      .cls-4 {
        fill: url(#radial-gradient-9);
      }

      .cls-5 {
        fill: url(#linear-gradient-10);
      }

      .cls-6 {
        fill: url(#linear-gradient-12);
      }

      .cls-7 {
        fill: url(#linear-gradient-4);
      }

      .cls-8 {
        fill: url(#radial-gradient-5);
      }

      .cls-9 {
        fill: url(#radial-gradient);
      }

      .cls-10 {
        fill: url(#radial-gradient-3);
      }

      .cls-11 {
        fill: url(#linear-gradient-3);
      }

      .cls-12 {
        fill: url(#linear-gradient-5);
      }

      .cls-13 {
        isolation: isolate;
      }

      .cls-14 {
        fill: url(#linear-gradient-8);
      }

      .cls-15 {
        fill: url(#radial-gradient-8);
      }

      .cls-16 {
        fill: url(#radial-gradient-2);
      }

      .cls-17 {
        fill: url(#radial-gradient-4);
      }

      .cls-18 {
        fill: url(#radial-gradient-11);
        mix-blend-mode: screen;
      }

      .cls-19 {
        fill: url(#linear-gradient-7);
      }

      .cls-20 {
        fill: url(#linear-gradient-9);
      }

      .cls-21 {
        mix-blend-mode: multiply;
      }

      .cls-22 {
        fill: url(#linear-gradient-11);
      }

      .cls-23 {
        fill: url(#radial-gradient-12);
      }

      .cls-24 {
        fill: url(#linear-gradient-6);
      }

      .cls-25 {
        fill: url(#radial-gradient-6);
      }

      .cls-26 {
        fill: url(#radial-gradient-7);
      }

      .cls-27 {
        fill: url(#linear-gradient);
      }
    </style>
    <linearGradient id="linear-gradient" x1="0" y1="3.64" x2="21.42" y2="3.64" gradientUnits="userSpaceOnUse">
      <stop offset="0" stop-color="#ffe42b"/>
      <stop offset=".13" stop-color="#fff66b"/>
      <stop offset=".21" stop-color="#ffff8b"/>
      <stop offset=".45" stop-color="#b87700"/>
      <stop offset=".67" stop-color="#ffc02f"/>
      <stop offset="1" stop-color="#ffe42b"/>
    </linearGradient>
    <linearGradient id="linear-gradient-2" x1="-4.39" y1="4.41" x2="12.21" y2="4.41" gradientTransform="translate(6.22 -.08) rotate(-.78) scale(1.17 .86) skewX(-1.35)" gradientUnits="userSpaceOnUse">
      <stop offset="0" stop-color="#ffe42b"/>
      <stop offset=".33" stop-color="#ffc02f"/>
      <stop offset=".55" stop-color="#b87700"/>
      <stop offset=".79" stop-color="#ffff8b"/>
      <stop offset=".87" stop-color="#fff66b"/>
      <stop offset="1" stop-color="#ffe42b"/>
    </linearGradient>
    <linearGradient id="linear-gradient-3" x1="0" y1="3.64" x2="21.42" y2="3.64" gradientTransform="matrix(1,0,0,1,0,0)" xlink:href="#linear-gradient-2"/>
    <linearGradient id="linear-gradient-4" x1="3.23" y1="4.34" x2="3.92" y2="9.58" gradientTransform="translate(-.68 -4.3) rotate(-2.65)" xlink:href="#linear-gradient"/>
    <linearGradient id="linear-gradient-5" x1="4.76" y1="4.14" x2="5.45" y2="9.38" gradientTransform="translate(-.68 -4.3) rotate(-2.65)" xlink:href="#linear-gradient"/>
    <linearGradient id="linear-gradient-6" x1="6.57" y1="3.9" x2="7.26" y2="9.14" gradientTransform="translate(-.68 -4.3) rotate(-2.65)" xlink:href="#linear-gradient"/>
    <linearGradient id="linear-gradient-7" x1="7.94" y1="3.72" x2="8.63" y2="8.96" gradientTransform="translate(-.68 -4.3) rotate(-2.65)" xlink:href="#linear-gradient"/>
    <linearGradient id="linear-gradient-8" x1="9.11" y1="3.56" x2="9.79" y2="8.81" gradientTransform="translate(-.68 -4.3) rotate(-2.65)" xlink:href="#linear-gradient"/>
    <linearGradient id="linear-gradient-9" x1="10.72" y1="3.35" x2="11.41" y2="8.59" gradientTransform="translate(-.68 -4.3) rotate(-2.65)" xlink:href="#linear-gradient"/>
    <linearGradient id="linear-gradient-10" x1="12.88" y1="3.07" x2="13.57" y2="8.31" gradientTransform="translate(-.68 -4.3) rotate(-2.65)" xlink:href="#linear-gradient"/>
    <linearGradient id="linear-gradient-11" x1="14.42" y1="2.87" x2="15.11" y2="8.11" gradientTransform="translate(-.68 -4.3) rotate(-2.65)" xlink:href="#linear-gradient"/>
    <linearGradient id="linear-gradient-12" x1="16.03" y1="2.66" x2="16.72" y2="7.89" gradientTransform="translate(-.68 -4.3) rotate(-2.65)" xlink:href="#linear-gradient"/>
    <linearGradient id="linear-gradient-13" x1="17.63" y1="2.44" x2="18.32" y2="7.68" gradientTransform="translate(-.68 -4.3) rotate(-2.65)" xlink:href="#linear-gradient"/>
    <radialGradient id="radial-gradient" cx="10.11" cy="2.86" fx="10.11" fy="2.86" r="9.56" gradientTransform="translate(-.68 -4.3) rotate(-2.65)" gradientUnits="userSpaceOnUse">
      <stop offset="0" stop-color="#4d4d4d"/>
      <stop offset="1" stop-color="#000"/>
    </radialGradient>
    <radialGradient id="radial-gradient-2" cx="10.11" cy="2.85" fx="10.11" fy="2.85" r="9.56" xlink:href="#radial-gradient"/>
    <radialGradient id="radial-gradient-3" cx="10.11" cy="2.85" fx="10.11" fy="2.85" r="9.56" xlink:href="#radial-gradient"/>
    <radialGradient id="radial-gradient-4" cx="10.11" cy="2.85" fx="10.11" fy="2.85" r="9.56" xlink:href="#radial-gradient"/>
    <radialGradient id="radial-gradient-5" cx="10.11" cy="2.85" fx="10.11" fy="2.85" r="9.56" xlink:href="#radial-gradient"/>
    <radialGradient id="radial-gradient-6" cx="10.11" cy="2.85" fx="10.11" fy="2.85" r="9.56" xlink:href="#radial-gradient"/>
    <radialGradient id="radial-gradient-7" cx="10.11" cy="2.85" fx="10.11" fy="2.85" r="9.56" xlink:href="#radial-gradient"/>
    <radialGradient id="radial-gradient-8" cx="10.11" cy="2.85" fx="10.11" fy="2.85" r="9.56" xlink:href="#radial-gradient"/>
    <radialGradient id="radial-gradient-9" cx="10.11" cy="2.85" fx="10.11" fy="2.85" r="9.56" xlink:href="#radial-gradient"/>
    <radialGradient id="radial-gradient-10" cx="10.11" cy="2.85" fx="10.11" fy="2.85" r="9.56" xlink:href="#radial-gradient"/>
    <radialGradient id="radial-gradient-11" cx="-43.9" cy="-2.01" fx="-43.9" fy="-2.01" r="86.4" gradientUnits="userSpaceOnUse">
      <stop offset="0" stop-color="#4d4d4d"/>
      <stop offset="1" stop-color="#000"/>
    </radialGradient>
    <radialGradient id="radial-gradient-12" cx="10.71" cy="3.64" fx="10.71" fy="3.64" r="7.75" gradientTransform="matrix(1,0,0,1,0,0)" xlink:href="#radial-gradient"/>
  </defs>
  <g class="cls-13">
    <g id="Layer_1">
      <g>
        <path class="cls-27" d="M21.41,5.22c.03.57-.41,1.05-.98,1.08L1.3,7.27c-.57.03-1.05-.41-1.08-.97l-.05-1.02L0,2.06c-.03-.57.41-1.05.98-1.08L20.12,0c.57-.03,1.05.41,1.08.98l.09,1.81.12,2.43Z"/>
        <path class="cls-3" d="M20.37,4.55c.02.38-.38.7-.9.73l-17.32.88c-.51.03-.94-.26-.96-.63l-.14-2.81c-.02-.38.38-.7.9-.73l17.32-.88c.51-.03.95.26.96.63l.14,2.81Z"/>
        <path class="cls-11" d="M20.17.52c.27,0,.5.21.51.49l.22,4.24c.01.28-.2.53-.49.54L1.27,6.76h-.03c-.27,0-.5-.21-.51-.49l-.22-4.24c-.01-.28.2-.53.49-.54l19.14-.97h.03M20.17,0s-.03,0-.05,0L.98.98C.41,1.01-.03,1.49,0,2.06l.22,4.24c.03.55.48.98,1.03.98.02,0,.03,0,.05,0l19.14-.97c.57-.03,1-.51.98-1.08l-.22-4.24c-.03-.55-.48-.98-1.03-.98h0Z"/>
        <g class="cls-21">
          <path class="cls-7" d="M3.57,5.39c-.11,0-.2,0-.28-.03-.08-.02-.15-.06-.2-.11-.05-.05-.1-.11-.13-.19-.04-.08-.06-.16-.08-.25-.02-.09-.03-.19-.03-.3l-.03-.71c0-.11,0-.21,0-.3,0-.09.03-.18.06-.25.03-.08.07-.15.11-.2.05-.05.11-.1.19-.13.08-.03.17-.05.28-.06.12,0,.22,0,.3.04.09.03.15.08.21.14.05.06.09.14.13.23.03.09.05.19.06.31,0,.02,0,.05,0,.08l-.35.02v-.08s-.01-.09-.02-.13c0-.03-.01-.07-.02-.11,0-.04-.02-.07-.04-.09-.01-.02-.03-.05-.06-.06-.02-.02-.05-.04-.08-.05-.03,0-.07-.01-.12,0-.06,0-.11.01-.15.03-.04.02-.07.05-.09.08-.02.03-.04.07-.05.12-.01.05-.02.1-.02.14,0,.05,0,.11,0,.17l.04.89c0,.06,0,.11.02.16,0,.05.02.1.04.14.02.05.04.09.06.12.03.03.06.06.1.07s.09.03.14.02c.05,0,.1-.01.14-.04.04-.02.06-.05.09-.08.02-.03.04-.07.05-.12.01-.05.02-.1.02-.14,0-.05,0-.1,0-.16v-.09s.35-.02.35-.02v.09c0,.13,0,.24-.01.34-.02.1-.05.18-.1.26-.05.08-.11.14-.2.18-.08.04-.19.07-.31.07Z"/>
          <path class="cls-12" d="M5.11,5.32c-.12,0-.23,0-.33-.04-.09-.03-.17-.09-.22-.16-.06-.07-.1-.16-.13-.25-.03-.1-.05-.21-.05-.34l-.04-.9c0-.13,0-.24.02-.34.02-.1.05-.19.1-.26.05-.08.12-.13.21-.17.09-.04.19-.06.32-.07.24-.01.42.05.53.18.11.13.18.33.19.6l.04.9c0,.13,0,.24-.02.34-.02.1-.05.19-.1.26-.05.08-.12.13-.21.18-.09.04-.19.07-.32.07ZM4.84,4.93c.05.07.14.1.26.1.13,0,.21-.05.25-.12.04-.08.06-.19.06-.34l-.05-1.08c0-.14-.04-.25-.09-.32-.05-.07-.14-.1-.27-.1-.13,0-.21.05-.25.12-.04.07-.06.18-.06.33l.05,1.08c0,.15.04.26.09.33Z"/>
          <path class="cls-24" d="M6.11,5.25l-.12-2.49.49-.02.44,1.89.26-1.92.49-.02.12,2.49-.36.02-.09-1.97-.27,1.98h-.27s-.45-1.94-.45-1.94l.09,1.97-.35.02Z"/>
          <path class="cls-19" d="M8.17,5.15l-.11-2.49.36-.02.11,2.49-.36.02Z"/>
          <path class="cls-14" d="M8.91,5.12l-.12-2.49h.27s.69,1.5.69,1.5l-.07-1.54.36-.02.12,2.49h-.25s-.71-1.62-.71-1.62l.08,1.66-.36.02Z"/>
          <path class="cls-20" d="M11.18,5.04c-.11,0-.21,0-.3-.03-.09-.03-.15-.07-.21-.12-.06-.05-.1-.12-.14-.21-.03-.08-.06-.17-.08-.27-.02-.1-.03-.21-.03-.33l-.03-.63c-.03-.61.2-.93.68-.95.12,0,.22,0,.31.04.09.03.16.08.21.14.06.06.1.14.13.23.03.09.05.19.06.31,0,.02,0,.04,0,.08l-.36.02v-.08c0-.06-.01-.11-.02-.15,0-.04-.02-.08-.03-.12-.02-.04-.04-.07-.06-.1-.02-.02-.06-.04-.09-.06-.04-.01-.09-.02-.14-.02-.07,0-.13.02-.18.05-.05.03-.09.07-.11.12-.02.05-.04.11-.05.17,0,.06-.01.13,0,.21l.04.8c0,.06,0,.11.01.16,0,.05.01.1.02.15.01.05.03.09.05.13.02.04.04.07.07.1.03.03.06.05.1.06.04.01.08.02.13.02.06,0,.11-.02.15-.04.04-.02.08-.06.1-.09.02-.04.04-.09.05-.14.01-.06.02-.12.02-.17,0-.06,0-.12,0-.19v-.09s-.36.02-.36.02v-.26s.7-.03.7-.03l.06,1.24h-.27s-.1-.25-.1-.25c-.06.2-.18.3-.34.31Z"/>
          <path class="cls-5" d="M13.41,4.94c-.22.01-.4-.05-.52-.17-.12-.13-.2-.3-.22-.53l.35-.1c.03.35.16.53.38.52.18,0,.26-.1.25-.28,0-.06-.01-.1-.03-.15-.02-.05-.04-.09-.07-.12-.03-.04-.06-.06-.08-.09-.02-.02-.06-.05-.1-.08l-.46-.34c-.08-.06-.15-.14-.21-.23-.05-.1-.08-.21-.09-.33,0-.18.04-.33.15-.45.11-.11.26-.18.45-.18.2,0,.37.03.49.12.12.09.2.23.24.41,0,.02,0,.05.01.08l-.35.11s0-.04-.01-.07c-.02-.11-.06-.2-.12-.27-.06-.07-.14-.1-.25-.09-.09,0-.15.03-.19.08-.04.05-.06.12-.06.2,0,.14.07.25.19.34l.46.34c.25.18.38.41.39.67,0,.18-.04.33-.15.44s-.26.17-.45.17Z"/>
          <path class="cls-22" d="M14.93,4.86c-.12,0-.23,0-.32-.04-.09-.03-.17-.09-.22-.16-.06-.07-.1-.16-.13-.25-.03-.1-.04-.21-.05-.34l-.04-.9c0-.13,0-.25.02-.34.02-.1.05-.19.1-.26.05-.08.12-.13.21-.17.09-.04.2-.06.32-.07.24-.01.42.05.54.18.11.13.18.33.19.6l.04.9c0,.13,0,.24-.02.34-.02.1-.06.19-.1.26-.05.08-.12.14-.21.18-.09.04-.19.07-.32.07ZM14.65,4.47c.05.07.14.11.27.1.12,0,.21-.05.25-.12.05-.08.06-.19.06-.33l-.05-1.08c0-.14-.03-.25-.09-.32-.05-.07-.14-.1-.26-.1-.13,0-.21.05-.26.12-.04.07-.06.18-.06.33l.05,1.08c0,.15.04.26.09.33Z"/>
          <path class="cls-6" d="M16.57,4.79c-.13,0-.23,0-.32-.04-.09-.03-.17-.08-.22-.16-.06-.07-.1-.16-.13-.25-.03-.1-.04-.21-.05-.34l-.04-.9c0-.13,0-.24.02-.34.02-.1.05-.19.11-.26.05-.08.12-.13.2-.17.09-.04.19-.06.32-.07.24-.01.42.05.54.18.11.13.18.33.19.6l.04.9c0,.13,0,.24-.02.34-.02.1-.06.19-.11.26-.05.08-.12.14-.21.18-.09.04-.19.07-.32.07ZM16.29,4.4c.05.07.14.1.27.1.12,0,.21-.05.25-.12.04-.08.06-.19.05-.34l-.05-1.08c0-.14-.03-.25-.08-.32-.05-.07-.14-.1-.26-.1-.13,0-.21.05-.26.12-.04.07-.06.18-.06.33l.05,1.08c0,.15.04.26.09.33Z"/>
          <path class="cls-2" d="M17.57,4.72l-.12-2.49h.27s.69,1.5.69,1.5l-.07-1.54.35-.02.12,2.49h-.25s-.71-1.62-.71-1.62l.08,1.66-.36.02Z"/>
        </g>
        <g>
          <path class="cls-9" d="M3.36,5.18c-.11,0-.2,0-.28-.03-.08-.02-.15-.06-.2-.11-.05-.05-.1-.11-.13-.19-.04-.08-.06-.16-.08-.25-.02-.09-.03-.19-.03-.3l-.03-.71c0-.11,0-.21,0-.3,0-.09.03-.18.06-.25.03-.08.07-.15.12-.2.05-.05.11-.1.19-.13.08-.03.17-.05.28-.06.12,0,.22,0,.3.04.08.03.15.08.21.14.05.06.09.14.13.23.03.09.05.19.06.3,0,.02,0,.05,0,.08l-.35.02v-.08c0-.05,0-.09-.02-.13,0-.04-.01-.07-.02-.11,0-.04-.02-.07-.04-.09-.01-.02-.03-.05-.06-.06-.02-.02-.05-.04-.08-.04-.03,0-.07,0-.12,0-.06,0-.11.01-.15.03-.04.02-.07.05-.09.08-.02.03-.04.07-.05.12-.01.05-.02.1-.02.14,0,.05,0,.11,0,.17l.04.89c0,.06,0,.12.02.16,0,.05.02.1.04.14.02.05.04.09.06.12.03.03.06.06.1.07.04.02.09.03.14.02.05,0,.1-.01.14-.04.04-.02.06-.05.09-.08.02-.03.03-.08.04-.12.01-.05.02-.1.02-.15,0-.05,0-.1,0-.16v-.09s.35-.02.35-.02v.09c0,.13,0,.24-.01.34-.02.1-.05.19-.1.26-.05.08-.11.14-.2.18-.08.04-.19.06-.31.07Z"/>
          <path class="cls-16" d="M4.91,5.11c-.12,0-.23,0-.33-.04-.09-.03-.17-.09-.22-.16-.06-.07-.1-.16-.13-.25-.03-.1-.05-.21-.05-.34l-.04-.9c0-.13,0-.25.02-.34.02-.1.05-.19.1-.26.05-.08.12-.13.21-.17.09-.04.19-.06.32-.07.24-.01.42.05.53.18.11.13.18.33.19.6l.04.9c0,.13,0,.24-.02.34-.02.1-.05.19-.1.26-.05.08-.12.14-.21.18-.09.04-.19.07-.32.07ZM4.63,4.72c.05.07.14.11.26.1.12,0,.21-.05.25-.12.04-.08.06-.19.06-.33l-.05-1.08c0-.14-.04-.25-.09-.32-.05-.07-.14-.1-.26-.1-.13,0-.21.05-.26.12-.04.07-.06.18-.06.33l.05,1.08c0,.15.04.26.09.33Z"/>
          <path class="cls-10" d="M5.9,5.04l-.11-2.49.49-.02.44,1.89.26-1.92.49-.02.12,2.49-.36.02-.09-1.97-.26,1.98h-.27s-.45-1.94-.45-1.94l.09,1.96-.36.02Z"/>
          <path class="cls-17" d="M7.96,4.94l-.11-2.49.36-.02.12,2.49-.36.02Z"/>
          <path class="cls-8" d="M8.7,4.91l-.12-2.49h.27s.69,1.5.69,1.5l-.07-1.54.36-.02.12,2.49h-.25s-.71-1.62-.71-1.62l.08,1.66-.36.02Z"/>
          <path class="cls-25" d="M10.97,4.83c-.11,0-.21,0-.3-.03-.09-.03-.15-.07-.21-.12-.05-.05-.1-.12-.14-.21-.04-.08-.06-.18-.08-.27-.02-.09-.03-.21-.03-.33l-.03-.63c-.03-.61.2-.93.68-.95.12,0,.22,0,.3.04.09.03.16.08.22.14.05.06.1.14.13.23.03.09.05.19.06.31,0,.02,0,.04,0,.08l-.36.02v-.07c0-.06-.01-.11-.02-.15,0-.04-.02-.08-.03-.12-.02-.04-.04-.07-.06-.1-.02-.02-.06-.04-.09-.06-.04-.01-.09-.02-.14-.02-.07,0-.13.02-.18.05-.05.03-.09.07-.11.12-.02.05-.04.11-.05.17,0,.06-.01.13,0,.21l.04.8c0,.06,0,.11.01.16,0,.05.01.1.03.15.01.05.03.09.05.13.02.04.04.07.07.1.03.03.06.05.1.06.04.01.08.02.14.01.06,0,.11-.02.15-.04.04-.02.08-.06.1-.09.02-.04.04-.09.05-.14.01-.06.02-.11.02-.17,0-.06,0-.12,0-.19v-.09s-.36.02-.36.02v-.26s.7-.03.7-.03l.06,1.24h-.27s-.1-.25-.1-.25c-.06.2-.17.3-.34.31Z"/>
          <path class="cls-26" d="M13.2,4.73c-.22.01-.4-.05-.52-.17-.12-.13-.2-.3-.22-.53l.35-.11c.03.35.16.53.38.52.18,0,.26-.1.25-.28,0-.05-.01-.1-.03-.15-.02-.05-.04-.08-.07-.12-.03-.04-.06-.06-.09-.09-.03-.02-.06-.05-.1-.08l-.46-.33c-.09-.06-.15-.14-.21-.23-.05-.1-.08-.21-.09-.34,0-.18.04-.33.15-.44.11-.11.26-.17.45-.18.2,0,.37.03.49.13.12.09.2.23.24.41,0,.02,0,.04.01.08l-.35.11s0-.04,0-.07c-.02-.11-.06-.2-.12-.27-.06-.07-.14-.1-.25-.09-.09,0-.15.03-.2.08-.04.05-.06.12-.06.2,0,.14.07.25.19.34l.46.33c.25.18.38.41.39.67,0,.18-.04.33-.15.44-.11.11-.26.17-.45.17Z"/>
          <path class="cls-15" d="M14.72,4.66c-.13,0-.23,0-.33-.04-.09-.03-.17-.08-.22-.16-.06-.07-.1-.16-.13-.25-.03-.1-.04-.21-.05-.34l-.04-.9c0-.13,0-.25.02-.34.02-.1.06-.19.1-.26.05-.08.12-.13.21-.17.09-.04.19-.06.32-.07.24-.01.42.05.54.18.11.13.18.33.19.6l.04.9c0,.13,0,.24-.02.34-.02.1-.05.19-.1.26-.05.08-.12.14-.21.18-.09.04-.19.07-.32.07ZM14.45,4.26c.05.07.14.1.26.1.13,0,.21-.05.25-.12.04-.08.06-.19.06-.33l-.05-1.08c0-.14-.03-.25-.08-.32-.05-.07-.14-.1-.27-.1-.13,0-.21.05-.25.12-.04.07-.06.18-.06.33l.05,1.08c0,.15.04.26.09.33Z"/>
          <path class="cls-4" d="M16.36,4.58c-.12,0-.23,0-.32-.04-.09-.03-.17-.09-.22-.16-.06-.07-.1-.16-.13-.25-.03-.1-.04-.21-.05-.34l-.04-.9c0-.13,0-.24.02-.34.02-.1.05-.19.1-.26.05-.07.12-.13.21-.17.09-.04.19-.06.32-.07.24-.01.42.05.54.18.11.13.18.33.19.6l.04.9c0,.13,0,.24-.02.34-.02.1-.05.19-.1.26-.05.08-.12.14-.21.18-.09.04-.19.07-.32.07ZM16.09,4.19c.05.07.14.11.27.1.12,0,.21-.05.25-.12.04-.08.06-.19.06-.33l-.05-1.08c0-.14-.03-.25-.08-.32-.05-.07-.14-.1-.27-.1-.13,0-.21.05-.26.12-.04.07-.06.18-.06.33l.05,1.08c0,.15.04.26.09.33Z"/>
          <path class="cls-1" d="M17.36,4.51l-.12-2.49h.27s.69,1.5.69,1.5l-.07-1.54.36-.02.12,2.49h-.25s-.71-1.62-.71-1.62l.08,1.66-.36.02Z"/>
        </g>
        <path class="cls-18" d="M21.29,2.78C13.22,1.29,4.78,3.62.17,5.28L0,2.06c-.03-.57.41-1.05.98-1.08L20.12,0c.57-.03,1.05.41,1.08.98l.09,1.81Z"/>
        <path class="cls-23" d="M19.95.82c.27,0,.49.19.5.44l.21,3.83c.01.26-.2.47-.48.49L1.49,6.45h-.03c-.27,0-.49-.19-.5-.44l-.21-3.83c-.01-.26.2-.47.48-.49l18.7-.88h.03M19.95.35s-.03,0-.05,0L1.2,1.24c-.56.03-.98.46-.95.98l.21,3.83c.03.5.47.88,1,.88.02,0,.03,0,.05,0l18.7-.88c.55-.03.98-.46.95-.98l-.21-3.83c-.03-.5-.47-.88-1-.88h0Z"/>
      </g>
    </g>
  </g>
</svg>