<?xml version="1.0" encoding="utf-8"?>
<!-- Generator: Adobe Illustrator 24.1.2, SVG Export Plug-In . SVG Version: 6.00 Build 0)  -->
<svg version="1.1" id="Слой_1" xmlns="http://www.w3.org/2000/svg" xmlns:xlink="http://www.w3.org/1999/xlink" x="0px" y="0px"
	 viewBox="0 0 814.3 171.9" style="enable-background:new 0 0 814.3 171.9;" xml:space="preserve">
<style type="text/css">
	.st0{display:none;}
	.st1{display:inline;fill:#FEFEFE;}
	.st2{display:inline;}
	.st3{display:inline;fill:#020000;}
	.st4{display:inline;fill:#009ABF;}
	.st5{display:inline;fill:#FF9E59;}
	.st6{display:inline;fill:#00BDB3;}
	.st7{display:inline;fill:#FF6C85;}
	.st8{display:inline;fill:#007CCE;}
	.st9{display:inline;fill:#0093D0;}
	.st10{display:inline;fill:#FF8854;}
	.st11{display:inline;fill:#FF63A3;}
	.st12{display:inline;fill:#FF7987;}
	.st13{display:inline;fill:#3E52CF;}
	.st14{display:inline;fill:#A944C1;}
	.st15{display:inline;fill:#FF7967;}
	.st16{display:inline;fill:#D1B579;}
	.st17{display:inline;fill:#EA5B9E;}
	.st18{display:inline;fill:#E854B7;}
	.st19{display:inline;fill:#B849B6;}
	.st20{display:inline;fill:#CA4CC0;}
	.st21{display:inline;fill:#D4975B;}
	.st22{display:inline;fill:#A09676;}
	.st23{display:inline;fill:#749493;}
	.st24{display:inline;fill:#9DB88F;}
	.st25{display:inline;fill:#CD50AC;}
	.st26{display:inline;fill:#2D64D0;}
	.st27{display:inline;fill:#4E95A2;}
	.st28{display:inline;fill:#B89866;}
	.st29{display:inline;fill:#71BB9B;}
	.st30{display:inline;fill:#46BDA4;}
	.st31{display:inline;fill:#2C98AB;}
	.st32{display:inline;fill:#2E62D0;}
	.st33{display:inline;fill:#FFFFFF;}
	.st34{display:inline;fill:#00B1C7;}
	.st35{display:inline;fill:#FFAA52;}
	.st36{display:inline;fill:#E2AD67;}
	.st37{display:inline;fill:#45B9A6;}
	.st38{display:inline;fill:#FF7B76;}
	.st39{display:inline;fill:#0375D0;}
	.st40{display:inline;fill:#A8CFC7;}
	.st41{display:inline;fill:#D1A568;}
	.st42{display:inline;fill:#A1A87D;}
	.st43{display:inline;fill:#9CB389;}
	.st44{display:inline;fill:#73B599;}
	.st45{display:inline;fill:#C6B074;}
	.st46{display:inline;fill:#71AB91;}
	.st47{display:inline;fill:#3EAFA0;}
	.st48{display:inline;fill:#FF9350;}
	.st49{display:inline;fill:#00B2AC;}
	.st50{display:none;fill:none;stroke:#070707;stroke-miterlimit:10;}
	.st51{fill:url(#SVGID_1_);}
	.st52{fill:#000000;}
</style>
<g class="st0">
	<ellipse class="st1" cx="400.3" cy="87" rx="601.3" ry="148.3"/>
	<path class="st2" d="M473.9,103.8c-0.6-12-0.4-24-0.4-35.9c0-6,0-12,0-17.9c0-1.6,0-1.6,1.7-1.6c3.2,0,6.3,0,9.5,0
		c1.2,0,1.2,0,1.2,1.2c0,1.5,0,3,0,4.6c0,21.6,0,43.1,0,64.7c0,2.2,0.3,1.9-1.9,1.9c-4.2,0-8.5,0-12.7,0c-1.2,0-1.8-0.4-2.4-1.4
		c-10.5-18.7-21.4-37.1-31.3-56.1c-0.1-0.1-0.2-0.3-0.3-0.4c-0.4,0-0.2,0.3-0.2,0.5c0.6,10.7,0.6,21.3,0.6,32c0,7.8,0,15.6,0,23.4
		c0,0.4,0,0.8,0,1.2c0,0.5-0.2,0.8-0.8,0.8c-3.7,0-7.3,0-11,0c-0.6,0-0.8-0.3-0.7-0.8c0-0.4,0-0.8,0-1.2c0-22.8,0-45.6,0-68.4
		c0-2.1-0.3-1.9,1.9-1.9c4.6,0,9.3,0,13.9,0c1,0,1.5,0.3,2,1.2c9.5,16.5,19.3,32.9,28.5,49.6C472.2,100.6,473,102.2,473.9,103.8z"/>
	<path class="st2" d="M379.3,84.3c-0.1,7-1.3,13.8-4.7,20.1c-4.9,9.2-12.6,14.7-22.8,16.7c-6.2,1.2-12.4,1-18.4-0.8
		c-9.4-2.8-16-8.8-19.7-17.7c-4.8-11.7-5-23.6-0.1-35.2c4.6-11,13.2-17.3,24.9-19.4c6.8-1.2,13.5-0.7,20,1.8
		c9,3.4,14.9,10,18.2,18.9C378.5,73.6,379.3,78.8,379.3,84.3z"/>
	<path class="st3" d="M625.1,109.4c-0.4,2.5-0.7,4.8-1,7.1c-0.2,1.2-0.4,2.3-0.5,3.5c-0.1,0.5-0.3,0.7-0.8,0.7c-0.3,0-0.7,0-1,0
		c-15.6,0-31.2,0-46.8,0c-0.3,0-0.7,0-1,0c-0.5,0-0.7-0.2-0.7-0.7c0-0.4,0-0.8,0-1.2c0-22.9,0-45.7,0-68.6c0-2.1-0.2-1.9,1.9-1.9
		c15.3,0,30.6,0,46,0c0.1,0,0.2,0,0.3,0c1.8,0,1.7,0,1.7,1.6c0,2.7,0,5.4,0,8.1c0,1.5,0,1.5-1.6,1.5c-11,0-21.9,0-32.9,0
		c-2.2,0-2.2,0-2.2,2.2c0,4.6,0,9.3,0,13.9c0,1.8-0.1,1.6,1.5,1.6c10.6,0,21.1,0,31.7,0c2.1,0,1.8-0.3,1.8,1.8c0,2.8,0,5.5,0,8.3
		c0,1.2,0,1.2-1.2,1.2c-6.7,0-13.3,0-20,0c-4.2,0-8.4,0-12.5,0c-1.3,0-1.3,0-1.3,1.3c0,6,0,12,0,17.9c0,1.7,0,1.6,1.6,1.6
		c11.6,0,23.3,0,34.9,0C623.6,109.4,624.2,109.4,625.1,109.4z"/>
	<path class="st2" d="M765.2,99.8c1.9,0,3.8,0,5.8,0c0.9,0,1.3,0.3,1.4,1.1c0,0.1,0.1,0.2,0.1,0.3c1.6,5.1,4.9,8.2,10.1,9.4
		c3.9,0.9,7.8,0.9,11.7-0.1c7.1-1.8,8.2-7.6,6.9-12.4c-0.5-2.1-1.9-3.5-3.7-4.7c-1.8-1.2-3.7-1.9-5.7-2.6c-4-1.4-8.2-2.1-12.2-3.4
		c-3.6-1.1-7.1-2.5-10.4-4.5c-6.5-4-8.9-10-8.1-17.3c0.9-8.7,6-14.1,14.1-16.6c8.3-2.6,16.6-2.5,24.8,0.6c7.2,2.7,11.7,8,13.4,15.6
		c0.1,0.5,0.2,1.1,0.3,1.7c0.2,0.7-0.2,0.9-0.8,0.9c-0.9,0-1.8,0-2.7,0c-2.9,0-5.9,0-8.8,0c-1,0-1.4-0.3-1.6-1.3
		c-0.1-0.5-0.3-1-0.4-1.5c-1.1-3.2-3.3-5.4-6.5-6.4c-3.9-1.3-7.9-1.4-11.8-0.3c-5.6,1.6-6.8,6.5-5.7,10.7c0.4,1.7,1.5,2.9,2.9,3.8
		c2,1.4,4.3,2.1,6.7,2.8c4.1,1.2,8.3,2,12.4,3.4c3.5,1.2,6.9,2.6,9.9,4.6c5.5,3.6,8.2,8.7,8.3,15.2c0.1,6.1-1.6,11.5-6.1,15.7
		c-2.6,2.5-5.8,4.2-9.2,5.2c-8.9,2.6-17.9,2.7-26.6-0.5c-8.4-3.1-13.3-9.2-15-18c0-0.2,0-0.5-0.1-0.7c-0.2-0.7,0.1-0.9,0.8-0.9
		C761.3,99.8,763.2,99.8,765.2,99.8z"/>
	<path class="st2" d="M699.7,120.7c-3.6,0-7.2,0-10.8,0c-1.1,0-2.3,0.4-3.2-0.2c-0.9-0.6-0.9-1.9-1.2-2.9c-1.7-4.6-3.4-9.2-5-13.8
		c-0.6-1.5-0.6-1.5-2.1-1.5c-8.1,0-16.2,0-24.2,0c-1.5,0-1.5,0-2,1.4c-1.8,5.2-3.6,10.4-5.4,15.7c-0.5,1.3-0.5,1.3-1.9,1.3
		c-3.9,0-7.8,0-11.7,0c-0.3-0.7,0.1-1.2,0.3-1.7c8-23.1,16-46.2,24-69.3c0.5-1.5,0.3-1.3,1.9-1.3c4.7,0,9.4,0,14.1,0
		c1.5,0,1.5,0,2,1.4c6.7,18.5,13.3,37,20,55.5c1.7,4.6,3.3,9.2,5,13.8C699.5,119.6,699.8,120,699.7,120.7z"/>
	<path class="st2" d="M730,90.1c0,9.5,0,19,0,28.4c0,0.3,0,0.7,0,1c0.1,0.9-0.2,1.2-1.1,1.2c-3.3,0-6.7,0-10,0c-0.6,0-1.1,0-1.7,0
		c-0.6,0-0.8-0.2-0.8-0.8c0-0.5,0-0.9,0-1.4c0-18.9,0-37.7,0-56.6c0-0.3,0-0.6,0-0.8c0-1.5,0-1.5-1.5-1.5c-6.4,0-12.9,0-19.3,0
		c-1.7,0-1.7,0-1.7-1.6c0-2.8,0-5.5,0-8.3c0-1.4,0-1.4,1.4-1.4c3.3,0,6.7,0,10,0c15.1,0,30.2,0,45.3,0c2.2,0,1.9-0.2,1.9,1.9
		c0,2.7,0,5.4,0,8.1c0,1.3,0,1.3-1.3,1.3c-6.3,0-12.7,0-19,0c-0.3,0-0.6,0-0.8,0c-1.3,0-1.3-0.1-1.3,1.3C730,70.7,730,80.4,730,90.1
		z"/>
	<path class="st4" d="M81.1,156.3c-0.9-0.2-1.5-0.9-2.2-1.5c-1.9-1.4-3.7-2.9-5.4-4.5c-1.4-1.2-2.9-2.3-4.4-3.4
		c-3.7-3-7.5-5.9-11.2-9c-2.2-1.8-4.4-3.5-6.7-5.2c-1-0.8-1.8-1.6-2.7-2.6c2.3-0.5,2.6-2.1,2.5-4.1c-0.1-1.7,0.8-3.4,0.9-5.1
		c0.1-1.7,0-3.4,0-5.1c0-1.8-0.7-3.3-2.1-4.6c-1.2-1.1-1.8-2.6-1.9-4.2c-0.4-3.6-1-7.2-1.7-10.8c-0.3-1.3-0.1-2.7-0.6-4
		c-0.3-0.9-0.6-1-1.4-0.8c-1.2,0.2-2.2,0.8-3.4,1c-0.8-1,0.3-1.3,0.8-1.8c2.7-2.4,5.6-4.4,8.4-6.7c1.5-1.2,2.8-2.6,4.3-3.7
		c0.6-0.4,1.2-1.1,2.1-1c1.3,1.2,0.9-0.4,1.2-0.8c1.1-0.8,2.2-1.3,3.6-0.9c0.4,0.9-0.6,0.8-1,1.2c1.2,0.3,2,0.9,1.4,2.3
		c-0.1,0.3-0.1,0.7,0.2,0.9c1.1,1,0.8,2.2,0.5,3.4c-0.6,2.1-0.8,4.3-0.9,6.5c-0.1,2.4-1,4.7-1.1,7.1c0,1-0.9,1.6-1.6,2.3
		c-0.7,0.7-1.5,1.4-1.6,2.5c-0.1,0.2-0.2,0.4-0.3,0.6c-0.3,0.3-0.6,0.5-0.8,0.8c-0.1,0.2-0.3,0.3-0.5,0.5c-2.2,2.1-2.2,2.4,0.1,4.2
		c5.6,4.5,11.2,8.9,16.8,13.3c0.7,0.5,1.3,1.1,1.8,1.8c0.3,0.5,0.8,1,1.3,1.3c3.7,2.7,7,6,10.5,8.9c0.6,0.7,1.4,1.3,1.8,2.1
		c1.5,1.3,0.6,3.1,0.8,4.6c0.1,1.2,0,2.5,0.3,3.7c0.7,3.1-0.3,6.1-0.1,9.2c0.1,1.8-0.3,3.6,0.1,5.3c0.1,0.5-0.1,0.9-0.6,1
		c-0.2,0-0.3,0-0.5,0C85.3,159.8,83.3,157.9,81.1,156.3z"/>
	<path class="st2" d="M407.1,84.6c0,11.4,0,22.8,0,34.2c0,2,0.2,1.8-1.8,1.8c-3.4,0-6.9,0-10.3,0c-1.4,0-1.4,0-1.4-1.5
		c0-0.2,0-0.5,0-0.7c0-22.7,0-45.4,0-68.1c0-0.3,0-0.7,0-1c-0.1-0.9,0.3-1.1,1.2-1.1c3.6,0,7.2,0,10.9,0c1.8,0,1.5,0.1,1.5,1.6
		C407.1,61.5,407.1,73.1,407.1,84.6z"/>
	<path class="st5" d="M139.2,22.5c0.1,0.1,0.2,0.2,0.3,0.3c0.4,0.5,0.9,0.8,1.4,1.2c4,2.6,4.1,6.5,3.6,10.6c-0.3,2.5-0.5,4.9,0,7.4
		c0.2,0.7,0,1.5-0.1,2.2c-0.4,3-0.2,6,0.8,8.8c0.6,1.7,0.3,2.8-1,3.8c-1.1,1-2,2.3-3.5,3c-1.5,0.4-2.6,1.4-3.6,2.4
		c-2.9,2.9-6.5,5-9.6,7.7c-1.8,1.6-3.7,3-5.7,4.2c-1.3,0.8-2.1,0.5-2.1-1.1c-0.1-2.8-1.3-5.1-2.5-7.5c-1.1-2.3-1.7-4.7-1.9-7.1
		c-0.1-1.9,0.7-3.5,2.1-4.8c3.7-3.4,7.2-7,11.2-10c0.5-0.4,0.9-0.8,1.4-1.2c0.7-0.7,0.5-1.3-0.3-1.7c-2.3-1.5-4.3-3.4-6.5-5.1
		c-2-1.6-4.1-3.2-6.1-4.8c-2-1.6-4.4-2.8-5.8-5c-0.1-0.3-0.3-0.6,0-0.9c1.2-0.2,1.8,0.8,2.6,1.4c0.8,0.6,1.6,1.2,2.7,0.9
		c0.9-0.3,1.3,0.3,1.5,1.2c0.3,1.4,0.9,2.2,2.6,2.3c1.2,0.1,2.4,0.8,3.6,1.4c1.5,0.7,2.5,0.3,2.8-1.4c0.1-0.8,0.4-1.7,0.3-2.5
		c-0.1-2.1,0.4-4.1,1.2-6.1c0.6-1.5,0.2-2.9-0.3-4.4c-0.5-1.8-1.1-3.4-2.5-4.7c-0.1-0.1-0.1-0.3,0-0.5c0.9-0.5,1.2,0.5,1.8,0.7l0,0
		c2.5,2.2,5.1,4.4,7.8,6.4l0,0C136.7,20.4,137.9,21.5,139.2,22.5z"/>
	<path class="st6" d="M55,36.9c2.4-2.3,5.1-4.4,7.8-6.3c4-3.2,8.1-6.2,11.9-9.6c0.1-0.2,0.3-0.4,0.5-0.5c0.5-0.2,0.9-0.6,1.3-0.9
		c0.1-0.1,0.3-0.2,0.4-0.3c0.8-0.5,1.5-1.2,2.3-1.7c0.4-0.2,0.8-0.3,1.1,0c0.4,0.3,0.2,0.7,0,1.1c-0.1,0.2-0.1,0.3-0.3,0.4
		c-2.5,3-1.9,6.3-0.8,9.7c0.6,1.9,1.6,3.7,2.4,5.6c0.8,1.8,0.3,3.3-0.6,4.8c-1.5,2.6-1.5,2.9,1.1,4.7c1.5,1.1,2.4,2.7,3.5,4.1
		c0.8,1,0.8,2.4,0.6,3.6c-0.3,2.5-0.1,5,0.3,7.4c0.4,2.3,0.4,4.6,0.4,6.9c0,0.8-0.2,1.3-0.8,1.7c-0.5,0.3-0.7,0.8-0.8,1.4
		c-0.2,1.3-0.8,1.6-1.8,0.7c-1.9-1.7-4.1-3-6.1-4.5c-1.3-1-2.5-2-3.9-2.9c-3-1.4-5.5-3.7-8-5.8c-1.3-1-2.2-0.9-3.2,0.1
		c-1.3,1.3-3,2.2-4.3,3.5c-0.4,0.4-0.9,1-1.5,0.2c0.3-1.2,1.3-1.9,2-2.9c0.5-0.7,0.7-1.3,0.5-2.2c-0.6-2.1-0.9-4.2-0.8-6.3
		c0.1-1.6-0.6-3-0.8-4.5c-0.1-1.3-0.3-2.6-0.2-3.9c0.1-1.2-0.5-1.8-1.7-1.7c-0.6,0-1.4,0.4-1.6-0.4C53.8,37.6,54.7,37.5,55,36.9z"/>
	<path class="st7" d="M169,125.8c-1.2,1.3-2.6,2.2-4,3.4c-1.6,1.3-3.2,2.5-4.8,3.7c-0.5,0.4-1,0.8-1.3,1.3c-0.4,0.5-0.8,0.8-1.4,0.8
		c-0.2-0.9,0.6-1.3,1-1.8c2-2.1,2.1-4.4,0.6-6.9c-1.6-2.7-2.4-5.9-3.8-8.7c-0.4-0.9-0.2-2.4-1.2-2.6c-1.4-0.2-2.9,0.1-4.1,1.1
		c-0.6,0.5-1,1.3-2,1.1c-0.4-1.2,0.6-1.6,1.2-2.1c2.5-1.8,4.7-4.1,7.2-5.9c1.3-0.9,1.4-1.2,0.2-2.3c-1.5-1.4-3-2.8-4.7-3.8
		c-1-0.6-1.8-1.3-2.5-2.2c-0.3-0.3-0.8-0.7-0.2-1.3c1.2-0.2,2.1,0.8,3.2,1c1.6,0.3,1.7,0.1,2-1.5c0.5-2.3,0.9-4.6,1.2-6.9
		c0.2-1.8,0.5-3.7,0.6-5.5c0-0.4,0-0.8,0.3-1.1c0.7-0.6,0-1.1,0-1.7c-0.3-2.3-2-3.6-3.1-5.3c0.6-0.7,1.1-0.1,1.6,0.1
		c1.2,0.6,2.3,1.5,3.2,2.5c2.3,2.4,5.5,3.7,7.4,6.4c0.6,0.6,1.2,1.2,1.9,1.7c0.6,0.4,1.1,0.9,1.2,1.6c0.7,3.1,2,6,2.3,9.2
		c0.6,7.2,0.9,14.5,0.2,21.7C170.9,123.6,170.5,124.9,169,125.8z"/>
	<path class="st8" d="M40.4,92.2c1.4-0.8,2.9-0.9,4.4-1.5c0.8-0.3,1-0.2,1,0.7c0,0.7,0,1.3,0.5,1.9c0.1,0.2,0.2,0.5,0.1,0.6
		c-0.5,1.5,0.3,3,0.5,4.4c0.2,1.4,0.4,2.9,0.8,4.3c0.3,1.1,0.3,2.3,0.4,3.5c0,1.5,0.7,2.7,1.2,4c0.1,0.4,0.4,0.7,0.7,0.9
		c1.7,0.9,2,2.5,2.3,4.2c0.3,2.4,0,4.9,0,7.3c0,0.8-0.6,1.3-0.7,2.1c-0.2,1.5-0.3,3-0.1,4.6c0,0.4-0.1,0.8-0.4,0.7
		c-0.9-0.2-1.6,0.4-2.5,0.2c0,0,0,0,0,0c-0.3-0.3-0.7-0.4-1-0.7l0,0c-0.8-0.5-1.2-1.3-2-1.7l0,0c-0.5-0.3-0.8-0.7-1.3-1l0,0
		c-0.6-0.4-1-1-1.7-1.3l-0.1,0c-0.8-0.5-1.2-1.2-2-1.7c-1.9-0.8-3.2-2.4-4.8-3.7c-2.6-2.3-5.2-4.5-7.9-6.6c-1.7-1.3-1.7-1.7-0.8-3.5
		c1.8-3.4,2.5-7.1,2.6-10.9c0-1.2,0.4-2.1,1.5-2.6c0.2,0,0.3,0,0.5,0c0.5,0.2,0.9,0.5,1.5,0.5c0.8,0.1,1.5-0.1,2-0.9
		C36.6,94.4,38.2,92.9,40.4,92.2z"/>
	<path class="st9" d="M55,36.9c0,0.6-0.7,0.8-0.8,1.4c0.6,0.5,1,0,1.5-0.1c1.2-0.3,2.6,0.9,2.3,2c-0.5,2.1,0.1,4,0.5,5.9
		c0.1,0.8,0.4,1.5,0.4,2.3c-0.1,2.4,0.1,4.7,0.9,7c0.2,0.7,0.1,1.2-0.4,1.8c-0.9,1-1.7,2.1-2.5,3.1c0.1,0.8-0.5,1-1,1.4
		c-3.3,2.8-6.6,5.4-9.9,8.1c-3.8,3.1-7.7,6.2-11.6,9.2c-0.6,0.4-1.1,1.4-2.1,0.7c0.1-1.2,1.1-1.6,1.9-2.2c2.3-1.6,3.1-3.6,3.3-6.4
		c0.3-4.5-0.4-8.8-0.9-13.2c-0.2-1.9-0.6-2.2-2.5-2.3c-0.3,0-0.5-0.1-0.7-0.3c-0.3-0.5,0.1-0.8,0.5-1.1c2.5-1.9,4.9-4.1,7.4-6
		c1.2-1.1,2.4-2.3,3.7-3.4c2.8-2.2,5.7-4.3,8.3-6.7C53.7,37.6,54.3,37.2,55,36.9z"/>
	<path class="st10" d="M142.9,146.1c-1.2,1-2.4,2.2-3.8,3c-1.3,1.4-3,2.3-4.5,3.6c-1.6,1.4-2.8,0.9-3-1.2c-0.1-1.3-0.8-2.2-1.6-3.1
		c-1.7-2-2.8-4.4-3.6-6.9c-0.9-3.2,0-6,2.2-8.4c2.2-2.4,4.8-4.4,7-6.8c0.6-0.8,1.3-1.6,2.3-1.9c2.5-1.2,3-1,4.2,1.5
		c0.3,0.7,0.9,1.1,1.5,1.5c1.9,1,3.2,2.4,3.6,4.6c0.2,1.3,1.1,2.4,2.2,3.1c0.8,0.5,2,0.6,2,1.8c-0.1,1.3-0.4,2.6-1.4,3.5
		c-1.3,1.1-2.6,2.1-4,3.1C145,144.4,144.3,145.7,142.9,146.1z"/>
	<path class="st11" d="M162.5,41.1c1.5,0.7,2.4,2.1,3.7,3.1c0.8,1.2,2.1,1.9,3.2,2.8c2.9,2.2,4.4,5,3.6,8.8c-0.2,1,0.2,1.9,0.6,2.8
		c2,5.3,2.9,10.6,2,16.2c-0.1,0.7-0.3,1.4-0.6,2.1c-0.7,0.6-1.1-0.1-1.6-0.4c-2.8-2-5.5-4.3-8.2-6.5c-3-2.4-5.9-4.8-9-7.1
		c-0.7-0.5-1.5-0.9-1.3-2c2-1.2,2.6-3.3,2.9-5.3c0.5-4.6,1.6-9.1,0.3-13.7c-0.1-0.3-0.1-0.6-0.1-0.8c0-0.7,0.1-1.4,0.8-1.8
		c0.8-0.5,1.1,0.3,1.6,0.6c0.3,0.4,0.6,0.6,1.1,0.7C161.9,40.7,162.2,40.9,162.5,41.1z"/>
	<path class="st12" d="M160.5,39.8c-0.2,0-0.3-0.1-0.5-0.1c-0.9-0.4-1.3-0.2-1.5,0.7c-0.1,0.5,0,1,0.2,1.5c0.8,2.4,0.9,4.9,0.2,7.4
		c-0.1,0.3-0.1,0.6,0,0.8c0,2.3-0.2,4.5-0.9,6.7c-0.3,1-0.4,2-1.1,2.9c-0.5,0.7-1.1,1-1.8,1.3c-0.7,0.5-1-0.2-1.4-0.4
		c-1.6-1.3-3.3-2.4-4.8-3.8c-1.6-1.5-1.9-1.5-3.9-0.2c-0.4,0.2-0.7,0.5-1.2,0.2c1.3-1.2,2-2.4,0.7-4c-0.6-3-1.2-6.1-0.5-9.2
		c0.3-1.3-0.2-2.6-0.4-3.8c-0.3-1.6,0.1-3.1,0.3-4.6c0.2-1.7,0.2-3.4,0.1-5.1c0-0.6-0.3-1.2-0.1-1.8c0.2-0.5-0.3-0.8-0.6-1.1
		c-1.3-1.3-2.5-2.6-3.8-3.9c-0.1-0.1-0.1-0.3-0.2-0.4c0.3,0.1,0.7,0.2,0.9,0.4c1.5,1.2,3,2.3,4.5,3.6c1.4,1.2,2.9,2.4,4.4,3.6
		c1.6,1.3,3.3,2.3,4.8,3.8c1.2,1.2,2.5,2.4,4,3.3C159.1,38,159.9,38.8,160.5,39.8z"/>
	<path class="st13" d="M21.8,108.9c-1.4-0.7-2.6-1.8-3.8-2.8c-2.8-2.3-5.7-4.4-8.5-6.6c-2.7-2-4.8-4.6-6.2-7.7
		c-0.3-0.7-0.3-1.6-0.4-2.3C2.3,84.4,3.1,79.8,7,75.9c2.9-2.8,6-5.3,9.1-7.8c3.3-2.7,6.6-5.4,9.9-8.1c0.3-0.3,0.7-0.6,1.1-0.7
		c0.2,1.1-0.7,1.5-1.4,2.1c-2,1.6-4.1,3.3-6,5c-1.3,0.7-2.3,1.8-3.5,2.7c-0.9,0.7-1.7,1.5-1.1,2.8c0.2,0.4-0.1,0.9-0.2,1.3
		c-0.2,0.8-0.2,1.6,0.3,2.3c2.2,3,2.2,6.6,2.6,10c0.2,1.5,0.3,2.9,0.8,4.3c0.5,1.4,0.8,2.8,0.4,4.3c-0.3,1.3,0,2.7,0.1,4
		c0,1-0.2,1.8-1,2.6c-1.5,1.4-1.4,1.8-0.3,3.4c1,1.4,2.5,2.3,3.6,3.6c0.2,0.2,0.3,0.4,0.4,0.6C21.9,108.6,21.9,108.7,21.8,108.9z"/>
	<path class="st14" d="M197.5,69.5c2.2,1.3,4.2,2.8,6,4.6c0.9,0.8,1.6,1.7,2.5,2.5c1.8,1.5,2.4,3.7,3.3,5.7c1,2.3,0.5,4.6,0.7,7
		c0.1,0.9-0.5,1.5-0.7,2.2c-0.9,3.1-3,5.4-5.4,7.3c-0.7,0.6-1.2,1.6-2.3,1.6c-1,0.1-1.5,0.9-2.2,1.5c-1,0.8-1.9,0.8-2.9,0.2
		c-1-0.6-1.3-1.5-1.3-2.6c0.1-2.4,0.1-4.7,0.6-7.1c0.4-1.9,0.4-3.7-0.2-5.5c-0.4-1.2-0.2-2.5-0.3-3.7c-0.3-3.7-1.2-7.3-2.1-10.9
		c-0.2-0.8-0.3-1.7-0.4-2.5c-0.1-0.8,0.3-1.5,1-1.8c0.8-0.4,1.5-0.3,2.2,0.2C196.5,68.7,196.9,69.3,197.5,69.5z"/>
	<path class="st15" d="M142.9,146.1c2-1.8,4-3.8,6.3-5.3c1.4-0.9,1.5-2.4,2-3.8c0.2-0.5-0.3-1-0.9-1.2c-2-0.6-3-2.1-3.4-4.2
		c-0.4-2-1.7-3.3-3.5-4.1c-0.9-0.4-1.4-0.9-1.6-1.7c-0.1-0.3-0.2-0.6-0.4-0.9c-0.7-1.1-1.5-1.3-2.6-0.5c-0.2,0.2-0.5,0.2-0.8,0.2
		c-0.1-1,0.7-1.4,1.3-1.9c2.3-1.6,4.4-3.5,6.6-5.2c0.5-0.4,1.1-1.1,1.9-0.7c0.8,0.1,1.2-0.6,1.6-1.1c0.7-0.7,1.4-1.3,2.5-1.2
		c0.5,0.1,1-0.3,1.4-0.4c1-0.3,1.2-0.2,1.6,0.8c0.2,0.7,0.5,1.4,0.6,2.1c0.2,1.3,0.8,2.4,1.6,3.5c0.2,0.3,0.5,0.5,0.5,0.9
		c0.1,1.8,0.9,3.3,1.9,4.7c0.3,0.4,0.5,0.9,0.5,1.4c0,0.7,0,1.3,0.4,1.9c0.5,0.8,0.3,1.5-0.3,2.2c-0.9,1-1.9,2.1-2.8,3.1
		c-3.1,2.5-6.3,4.9-9.4,7.3c-1.1,0.8-2.2,1.7-3.2,2.8C144.4,145.6,143.8,146.2,142.9,146.1z"/>
	<path class="st16" d="M111.4,24.9c0.1,0.2,0.2,0.5,0.3,0.7c-0.5,0.3-0.9,0.1-1.2-0.2c-1.1-0.9-2.4-1.5-3.3-2.6
		c-0.8-0.9-1.5-0.9-2.4-0.1c-1.7,1.5-3.6,2.7-5.2,4.2c-0.4,0.4-0.9,0.7-1.5,0.6c-0.3,0-0.5-0.1-0.7-0.3c-1-4.7-2.7-9.2-3.5-13.9
		c-0.6-3.5,0.8-6.5,2.2-9.5c0.4-0.9,1.4-1.2,2.2-1.8c0.5-0.3,1.1-0.5,1.3-1.2c3.2-1.6,6.6-1.8,10-1c2.2,0.5,4.3,1.5,6.1,3
		c2.7,2.3,5.5,4.5,8.2,6.7c1.3,1.1,2.8,2.1,3.8,3.5c-0.7,0.1-1-0.7-1.7-0.7c-1-0.2-1.6-1-2.3-1.6c-2.8-2.3-5.7-4.5-8.4-6.8
		c-2.9-2.5-6.3-3.2-10-2.6c-0.9,0.2-1.4,0.6-1.5,1.5c-0.1,0.6-0.2,1.3,0.2,1.8c2,3.5,1.6,7.6,2.4,11.3c0,0.2,0.1,0.4,0,0.5
		c-1.1,3.4,1.5,4.8,3.6,6.5C110.5,23.5,111.3,23.9,111.4,24.9z"/>
	<path class="st17" d="M169,125.8c0.2-0.5,0.6-0.8,1-1.2c0.5-0.5,0.6-1,0.6-1.8c-0.1-1.4,0.1-2.8,0.3-4.1c0.1-0.6,0.2-1.1,0.2-1.7
		c0-3.1,0.2-6.2,0-9.3c-0.2-2.9-0.3-5.8-0.9-8.7c-0.1-0.7-0.1-1.5-0.1-2.2c0-1-0.2-2-1-2.8c-0.6-0.6-0.8-1.3-0.7-2.2
		c0.1-1.1-0.4-1.8-1.2-2.4c-0.9-0.5-1.6-1.2-2.2-2.1c0.6-0.5,1,0.1,1.5,0.4c3.1,2.4,6.1,4.8,9,7.3c1,0.8,2.2,1.3,3.2,2.1
		c0.1,0.7,0.4,1.4,0.7,2.1c0.7,1.7,1.1,3.4,1,5.2c-0.1,3.3,0.4,6.7-0.1,10c-0.1,0.8,0.7,1.4,0.2,2.3c-0.7,0.9-1.7,1.5-2.5,2.2
		c-2.7,2.1-5.3,4.2-8,6.2C169.6,125.6,169.4,125.8,169,125.8z"/>
	<path class="st18" d="M174.8,76.9c-0.2-1.1,0.4-2.1,0.5-3.2c0.2-2.1,0.3-4.1,0-6.2c-0.3-2.5-0.6-5-1.5-7.4
		c-0.3-0.7-0.6-1.5-0.9-2.2c-0.3-0.8-0.5-1.6-0.3-2.6c0.3-1.1,0.1-2.2,0.1-3.4c0-0.1,0-0.1,0-0.2c-1.1-1.1-1.2-3-2.6-3.9
		c-1.3-0.9-2.4-2-3.6-3c-0.2-0.2-0.5-0.3-0.3-0.7c2.8,1.9,5.3,4.2,7.9,6.3c0.7,0.6,1.6,0.9,2,1.7c1.5,1.6,3.2,2.8,4.8,4.2
		c0.8,0.7,1.3,1.4,1.4,2.4c0.9,5.6,1.5,11.2,2.6,16.7c0.2,1.2,0.2,2.4,0,3.5c-0.4,1.8-0.5,3.7-0.2,5.5c-0.5,0.7-0.9,0.1-1.3-0.1
		c-2.9-2.1-5.7-4.5-8.5-6.8C174.8,77.5,174.5,77.3,174.8,76.9z"/>
	<path class="st19" d="M197.5,69.5c-0.7,0.1-1-0.4-1.4-0.8c-0.5-0.6-1.2-0.6-1.9-0.5c-0.7,0.1-1.3,0.8-1.1,1.4
		c0.2,0.8,0.1,1.7,0.4,2.5c0.8,2.3,1.1,4.7,1.7,7c0.5,1.9,0.4,3.9,0.5,5.8c0,0.6-0.1,1.2,0.2,1.8c0.7,1.9,0.6,3.8,0.3,5.8
		c-0.2,1.6-0.6,3.2-0.4,4.8c0.1,0.6,0,1.1,0,1.7c-0.2,2.1,0.1,2.6,2.1,3.1c0.3,0.1,0.5,0,0.8-0.1c0.5-0.4,1.1-0.6,1.5-1.1
		c0.4-0.5,0.9-0.7,1.5-0.6c-2.9,2.3-5.8,4.6-8.7,6.8c-0.7,0.6-1,1.7-2.2,1.6c-1,0.4-2,1.2-2.9-0.2c-0.3-0.4-0.5-0.9-0.4-1.4
		c0.7-2.9-0.2-5.8,0.7-8.7c0.4-1.1-0.5-2-1.1-2.9c-0.7-1-1.4-1.6-2.7-1.2c-0.3,0.1-0.5-0.1-0.7-0.3c-0.1-0.1-0.1-0.3-0.2-0.5
		c0.3-0.5,0.8-0.8,1.2-1.2c0.1-0.1,0.2-0.2,0.4-0.3c0.8-0.5,1.4-1.1,1.9-1.9c0.3-0.4,0.6-0.8,1.1-1.1c0.2-0.1,0.3-0.2,0.4-0.3
		c0.1-0.2,0-0.3-0.1-0.4c-0.2-0.1-0.3-0.3-0.4-0.4c-0.1-0.2-0.1-0.5,0.1-0.7c1.1-0.5,1.8,0.3,2.5,0.9c0.3,0.3,0.4,1,1,0.8
		c0.6-0.2,0.7-0.9,0.7-1.4c0.1-3.1,0.4-6.2-0.1-9.3c-0.4-2.6-1.1-5.2-1.7-7.7c-0.5-2.2-0.4-4.5-0.5-6.7c0-0.2,0.2-0.2,0.4-0.3
		C192.6,65.9,195.6,67.1,197.5,69.5z"/>
	<path class="st20" d="M190.3,63.8c-0.1,0.1-0.2,0.2-0.2,0.3c0.5,1.8,0.6,3.7,0.5,5.6c0,0.3-0.1,0.5,0.1,0.8
		c1.2,2.6,1.5,5.5,1.9,8.3c0.2,1.6,0.6,3.3,0.2,5c-0.3,1.1-0.1,2.4-0.1,3.5c0,0.9-0.2,1.8-0.8,2.5c-0.5,0.6-1,0.5-1.2-0.2
		c-0.3-1.1-1.2-1.5-2.2-2c-0.2-0.1-0.4,0-0.6,0.2c-1.4-0.4-3.1-2-3.4-3.1c-0.8-1.5-0.7-3.1-0.3-4.6c0.6-2.5,0.3-4.9-0.3-7.3
		c-0.5-2.3-1.1-4.6-1.2-6.9c-0.1-2.4-0.9-4.7-0.9-7.1c0-0.7-0.3-1.1-0.8-1.6c-1.4-1.4-2.9-2.6-4.4-3.9c-0.3-0.2-0.9-0.4-0.6-1
		c1.1,0.4,1.7,1.3,2.5,2c3.4,2.7,6.7,5.4,10.1,8.2C189.3,62.8,190.1,63,190.3,63.8z"/>
	<path class="st21" d="M136.1,126.4c-0.4,0.9-1.2,1.5-1.9,2.1c-2.1,1.6-3.8,3.5-5.6,5.4c-2,2-2.4,5.8-1.4,8.4
		c0.9,2.5,2.3,4.7,3.9,6.8c0.6,0.8,1,1.7,1,2.8c-0.1,1.3,0.4,1.5,1.6,1.1c0.4-0.1,0.9-0.3,1.2-0.6c1.1-1.2,2.7-1.9,3.8-3
		c0.1-0.1,0.3-0.1,0.5-0.2c-0.2,0.7-0.8,1.1-1.3,1.5c-1.6,1.1-3.2,2.4-4.6,3.7c-0.2,0.2-0.5,0.5-0.8,0.6c-2,0.9-3.5,2.4-5.2,3.7
		c-0.6,0.5-1.1,1.1-1.8,1.6c-1.4,0.9-2.9,0.3-2.9-1.2c0.1-4.6-2.2-8.4-4.1-12.4c-0.5-1-0.6-2.2-1.2-3.2c-0.3-0.6,0.1-1.2,0.4-1.7
		c0.8-1.5,2.4-2.2,3.4-3.5c1-1.4,2.4-2.4,3.7-3.4c3-2.4,5.9-4.9,8.9-7.3C134.4,127,135,126.1,136.1,126.4z"/>
	<path class="st22" d="M119.7,164.7c-1.7,2.2-4,3.7-6.3,5.1c-2,1.2-4.2,1.5-6.4,1.3c-0.2-0.4-0.2-0.8-0.1-1.1
		c0.9-3.3,0.2-6.6-0.3-9.8c-0.5-3-1.4-5.9-2.1-8.8c-0.1-0.6-0.7-1-0.8-1.7c0.2-0.6,0.6-0.5,0.9-0.2c1,0.7,1.7,0.2,2.4-0.4
		c2.2-1.8,4.5-3.5,6.7-5.4c0.5-0.4,0.9-1.1,1.7-0.5c-0.1,1.1-1.1,1.7-1.8,2.4c-1,0.9-1.2,1.7-0.3,2.9c3.2,4.3,4.1,9.3,3.8,14.6
		c0,0.3,0,0.7,0,1c0,0.9,0.3,1.3,1.2,0.8C118.8,164.5,119.3,164.4,119.7,164.7z"/>
	<path class="st23" d="M103.9,149.5c0.2,0.4,0.5,0.7,0.8,1c0.2,0.2,0.5,0.5,0.4,0.7c-0.5,1.4,0.5,2.3,0.8,3.5
		c0.4,1.5,0.7,3.1,0.9,4.6c0.4,2.1,0.9,4.2,0.9,6.3c0,1.9-0.2,3.8-0.9,5.6c-1.5,0-3,0.2-4.5,0.1c-2.3-0.2-4.4-1-6.1-2.7
		c2.5-1.2,2.4-1.2,2.1-4.1c-0.4-3.6-0.4-7.2-1.1-10.7c-0.4-1.9-0.6-3.9-0.7-5.8c-0.1-2.3-1.3-3.9-3-5.2c-1-0.8-2.1-1.6-2.4-3
		c0.5-0.8,1-0.3,1.4,0c3.6,2.9,7.1,5.9,10.7,8.7C103.7,148.6,104,148.9,103.9,149.5z"/>
	<path class="st24" d="M99.5,0.8c0.2,0,0.4,0,0.9,0.1c-1.1,0.7-1.9,1.4-2.9,1.9c-1.2,0.7-1.8,1.7-2.1,2.9c-0.2,0.7-0.4,1.4-0.7,2.1
		c-0.9,1.9-0.9,3.9-0.4,5.9c0.2,0.9,0.4,1.7,0.4,2.6c0.1,0.9,0.4,1.7,0.7,2.6c1,2.7,1.8,5.4,1.9,8.3c-0.9,1.3-1.9,2.5-3.2,3.3
		c-0.8,0.5-1.7,1.1-2.4,1.7c-0.7,0.6-1.4,1.3-2.5,0.5c-0.2-2.6-0.1-5.3-1-7.8c-0.8-2.5-1.3-5-1.3-7.6c0-1.3,0.1-2.5,0.5-3.7
		c0.5-1.2,0.3-2.2-0.7-3c1-1.4,2.3-2.2,3.7-3.2C91,7.2,91.5,7,91.8,6.6C94.1,4.3,96.7,2.4,99.5,0.8z"/>
	<path class="st25" d="M183.6,93.6c0.3,0.7,0.8,0.7,1.4,0.4c0.9-0.4,1.5-0.2,1.9,0.7c0.1,0.2,0.1,0.3,0.2,0.4c2,1.6,1.7,3.6,1.1,5.7
		c-0.4,1.3-0.4,2.7,0,4c0.2,0.7,0.2,1.3-0.2,1.9c-0.5,0.8-0.2,1.3,0.4,1.9c0.6,0.6,1.1,0.6,1.7,0.2c0.2-0.1,0.4,0,0.7,0
		c-0.6,0.5-1.2,1-1.7,1.6c-0.2,0.3-0.4,0.6-0.7,0.7c-1.5,0.5-2.5,1.7-3.6,2.7c-1.3,1.2-2.7,2.2-4.3,3.2c-0.2-0.3,0-0.7-0.3-0.9
		c-0.7-0.5-0.7-1.1-0.3-1.8c0.2-0.4,0.1-0.7,0.1-1.1c-0.1-0.7-0.1-1.3,0.2-2c0.2-0.4,0.2-0.9,0.1-1.3c-0.5-1.7-0.3-3.5-0.3-5.2
		c0.1-2.3-0.6-4.3-1.6-6.3c-0.3-0.5-0.2-0.7,0.2-0.9C179.8,95.7,181.3,94.1,183.6,93.6z"/>
	<path class="st2" d="M291.6,105.3c3.3,2.5,6.6,4.9,9.8,7.4c-0.6,0.9-1.4,1.5-2.1,2.1c-3.9,3.3-8.5,5.2-13.5,6.2
		c-0.9,0.2-1,0.1-1-0.9c0-3,0-6.1,0-9.1c0-0.4-0.1-0.9,0.5-1.1C287.7,108.9,289.8,107.4,291.6,105.3z"/>
	<path class="st26" d="M19.7,66.2c1-1.5,2.6-2.3,3.8-3.4c1.2-1.1,2.8-1.9,3.6-3.4c3.3-3.1,7-5.8,10.5-8.6c1.1-0.9,2.1-2,3.5-2.6
		c-0.3,0.6-0.9,1-1.4,1.4c-2.2,1.8-4.3,3.6-6.4,5.4c-0.6,1.4-1.8,2.3-2.9,3.2c-1,0.8-1.9,1.7-2.9,2.6c-1.6,1.4-0.9,3.2-0.4,4.6
		c0.6,2,0.4,4,0.3,6c-0.2,2.8-0.8,5.7-1.7,8.4c-0.2,0.5-0.3,1.1-0.2,1.7c0.2,1.2,0.7,1.5,1.8,1c0.6-0.3,1.2-0.4,1.8-0.1
		c0.5,0.6,0.1,1-0.3,1.3c-1.9,1.5-3.6,3.3-5.7,4.6c-0.3,0.1-0.5,0-0.8,0c-0.8-0.2-1.2-0.7-1.2-1.6c0-0.5,0-0.9-0.4-1.3
		c-0.8-1-0.9-1.9-0.1-2.9c0.2-0.2,0.4-0.5,0.3-0.8c-0.8-2.4,0.2-5.1-1.2-7.6c-0.8-1.4-1.8-3.3-0.2-5c0.3-0.4,0-0.9-0.2-1.3
		C19,67.1,19.1,66.6,19.7,66.2z"/>
	<path class="st27" d="M91.3,139.3c0.7,1.2,1.5,2.2,2.7,3c1.3,0.9,2.5,2.1,2.8,3.7c0.3,1.3,0.9,2.6,0.4,4c-0.1,0.3-0.1,0.7,0,1
		c0.8,2.7,1,5.5,1.3,8.3c0.3,2.3,0.3,4.6,0.6,6.9c0.3,2.2,0.1,2.2-2.2,2.3c-0.2,0-0.3,0-0.5,0c0,0,0,0,0,0c-0.3-0.3-0.7-0.5-1-0.7
		l0,0c-0.8-0.6-1.4-1.6-2.4-2l0,0c-0.4-0.4-0.8-0.8-1.4-1c-1.9-0.9-3.2-2.4-4.7-3.8c0.2-0.2,0.5-0.2,0.7,0l0,0
		c0.9,0.4,1.7,0.9,2.4,1.5c1.2,0.9,1.8,0.6,2-0.9c0.1-0.5,0-0.9,0-1.3c-0.2-1.5-0.1-3,0.1-4.5c0.4-3.2-0.3-6.4-0.7-9.5
		c0-0.2,0,0.1,0-0.2c0.3-3.7-1.4-6.5-4.2-8.7c-0.7-0.5-1.2-1-1.7-1.7c-0.1-0.1-0.1-0.2-0.1-0.3c0-0.1,0-0.1,0.1-0.1
		c0.1-0.1,0.3-0.1,0.5-0.1c0.2,0,0.3,0.1,0.4,0.1c0.5,0.3,0.9,0.8,1.4,1.1c0.1,0.1,0.2,0.2,0.4,0.3c0.5,0.5,1,1,1.7,1.4
		c0.1,0.1,0.2,0.2,0.4,0.3c0.3,0.3,0.7,0.6,1,0.9C91.3,139.2,91.3,139.3,91.3,139.3z"/>
	<path class="st28" d="M119.7,164.7c-0.7-0.1-1.1,0.5-1.7,0.7c-0.9,0.3-1.2,0.1-1.2-0.7c0-0.8-0.2-1.6,0-2.4
		c0.3-0.9,0.2-1.7-0.1-2.5c-0.5-1.4-0.1-2.8-0.5-4.2c-0.7-2.9-2-5.6-3.9-7.9c-0.5-0.6-0.3-1.1,0.1-1.6c1-1,2-2,2.9-3
		c1.2-2.1,3.4-3.3,5.1-5c0.2-0.2,0.6-0.2,0.9,0.1c-0.3,0.8-0.9,1.3-1.6,1.7c-0.6,0.4-1.1,1-1.5,1.5c-0.8,0.9-0.8,1.5-0.3,2.8
		c1.2,3.2,2.9,6.2,4.1,9.3c0.5,1.3,0.9,2.7,0.7,4.1c0,0.4,0,0.8,0,1.2c0.1,1.2,0.7,1.6,1.9,1.3c0.5-0.1,0.9-0.4,1.3-0.8
		c0.3-0.3,0.6-0.7,1.1-0.7c-0.5,1.2-1.7,1.9-2.7,2.6C123,162.5,121.3,163.6,119.7,164.7z"/>
	<path class="st29" d="M86.9,10.6c0.2,0,0.4,0.1,0.7,0.2c1.1,0.4,1.3,0.7,0.9,1.7c-0.9,2-1,4.2-0.8,6.3c0.1,1.7,0.4,3.4,0.9,5.1
		c0.7,2.3,1.4,4.6,1.1,7c-0.1,0.7,0,1.4,0,2c-0.8,1.7-2.3,2.8-3.6,3.9c-1.1,0.9-2.2,1.7-3.1,2.8c-0.4,0.5-0.9,1.2-1.8,0.7
		c0-1.3,1-2.1,1.8-2.9c2-1.8,2.7-4.1,1.8-6.7c-0.7-2-1.3-4.1-2-6.1c-0.8-2.2-0.6-4.3,0.2-6.4c0.3-0.8,0.6-1.7,0.7-2.8
		c-2.5,1.3-4.8,2.6-6.8,4.4l0,0c-0.5,0.3-0.9,0.7-1.4,1c-0.1,0.1-0.3,0.2-0.4,0.3c-0.2,0.2-0.4,0.2-0.7,0c1.4-1.7,3.2-3,4.9-4.3
		c2.3-1.6,4.3-3.6,6.4-5.4C86,11.1,86.4,10.8,86.9,10.6z"/>
	<path class="st26" d="M21.8,108.5c-0.1-0.1-0.2-0.2-0.4-0.4c-0.5-0.6-0.4-1.1,0.1-1.8c2.7-3.4,4.1-7,2.6-11.4c-0.5-1.4-0.4-3-1.7-4
		c-0.3-0.2-0.3-0.8,0.1-1.1c0.5-0.4,1,0,1.4,0.2c0.1,0.1,0.3,0.2,0.4,0.3c0.8,0.6,1.2,1.5,2.2,2c0.1,0.1,0.3,0.1,0.4,0.2
		c0.7,0.6,1.5,1,2.3,1.4c0.1,0.1,0.3,0.2,0.4,0.2c0.6,0.5,1.1,1.1,1.8,1.6c0.2,0.2,0.4,0.4,0.4,0.8c-1.5,0.8-1.8,1.3-1.6,2.9
		c0.1,1-0.2,1.9-0.3,2.8c-0.3,1.9-0.7,3.8-1.3,5.7c-0.3,1-0.9,2-1.5,2.9c-0.5,0.6-0.4,0.9,0,1.4c1,1.1,2.3,1.8,3.3,2.8
		c1.7,1.7,3.9,3,5.4,5.1c-1.2-0.3-1.9-1.4-2.8-2.1c-2.4-1.8-4.7-3.8-7.1-5.7c-0.1-0.1-0.2-0.3-0.3-0.4
		C24.4,110.7,22.9,109.8,21.8,108.5z"/>
	<path class="st30" d="M74.3,21.1c0.2,0,0.5,0,0.7,0c-1,1.4-2.5,2.2-3.8,3.3c-2.5,2-5,3.9-7.5,5.9c-0.3,0.2-0.5,0.4-0.9,0.4
		c0.2-0.6,0.7-1,1.2-1.4c2.2-1.7,4.5-3.4,6.7-5.1C71.9,23.1,72.9,21.9,74.3,21.1z"/>
	<path class="st31" d="M87.6,161c-0.2,0-0.5,0-0.7,0c-2.1-1.4-4.2-2.7-5.7-4.8c0.6,0,1.1,0.3,1.5,0.7
		C84.1,158.5,86.1,159.5,87.6,161z"/>
	<path class="st16" d="M135.4,19.4c-0.7,0.1-1.1-0.6-1.5-0.9c-1.7-1.3-3.4-2.7-5.1-4.1c-0.5-0.4-1-0.8-1.2-1.4
		c1.2,0.1,1.7,1.2,2.5,1.9C132,16.3,134,17.6,135.4,19.4z"/>
	<path class="st32" d="M21.8,108.5c1.5,0.6,2.3,2,3.6,2.9c0.1,0.1,0.1,0.3,0.1,0.5c-1.4-0.8-2.7-1.8-3.7-3.1
		C21.8,108.8,21.8,108.7,21.8,108.5z"/>
	<path class="st16" d="M139.2,22.5c-1.5-0.7-2.8-1.7-3.7-3C137.1,19.9,138.2,21.2,139.2,22.5z"/>
	<path class="st23" d="M93,165.8c1.2,0.2,1.8,1.1,2.4,2C94.3,167.5,93.7,166.6,93,165.8z"/>
	<path class="st4" d="M45.5,127.8c1,0.1,1.5,0.9,2,1.7C46.6,129.3,46.1,128.5,45.5,127.8z"/>
	<path class="st4" d="M40.4,123.8c1,0.1,1.5,0.9,2,1.7C41.5,125.2,41.1,124.4,40.4,123.8z"/>
	<path class="st4" d="M42.5,125.5c0.9,0.1,1.3,0.7,1.7,1.3C43.4,126.7,42.9,126.1,42.5,125.5z"/>
	<path class="st4" d="M44.2,126.8c0.7,0,1.1,0.4,1.3,1C44.9,127.7,44.5,127.3,44.2,126.8z"/>
	<path class="st23" d="M91.6,164.8c0.8-0.1,1.1,0.4,1.4,1C92.3,165.7,92,165.3,91.6,164.8z"/>
	<path class="st4" d="M47.6,129.5c0.5,0,0.8,0.2,1,0.7C48.1,130.1,47.7,130,47.6,129.5z"/>
	<path class="st12" d="M162.5,41.1c-0.5,0.1-0.8-0.2-1-0.6C162,40.4,162.4,40.6,162.5,41.1z"/>
	<path class="st23" d="M95.4,167.8c0.5-0.1,0.9,0.2,1,0.7C95.9,168.5,95.5,168.3,95.4,167.8z"/>
	<path class="st33" d="M324.2,84.9c0-6,0.7-10.9,2.9-15.5c3.8-8.1,10.7-11.2,18.8-10.8c2.8,0.1,5.6,0.7,8.1,2.1
		c4.3,2.2,7,5.8,8.8,10.1c1.1,2.7,1.8,5.6,2.1,8.5c0.6,6,0.3,11.9-1.6,17.7c-1.3,3.9-3.3,7.3-6.6,9.8c-4.2,3.2-9.1,4.2-14.2,3.6
		c-7.7-0.8-12.8-5.2-15.7-12.2C324.8,93.7,324.2,88.9,324.2,84.9z"/>
	<path class="st33" d="M664.9,59c3.4,10.7,7.2,21.2,10.9,31.9c-7,0-13.9,0-21.1,0C658.1,80.2,661.8,69.7,664.9,59z"/>
	<path class="st33" d="M31.7,96.6c0-0.3-0.2-0.4-0.4-0.6c-0.7-0.5-1.2-1.2-2-1.7l0,0c-0.8-0.5-1.5-1.1-2.3-1.6c-1-0.9-2-1.9-3.1-2.7
		c-0.6-0.5-1.4-1-0.7-2c1.7-1.6,3.3-3.2,5.2-4.4c0.4-0.2,0.7-0.6,0.9-1c0.8-1.1,1.9-1.9,3.1-2.5c1.7-1,3.2-2.3,4.7-3.5
		c2.1-1.5,4.1-3.2,6-4.8c2.3-1.9,4.6-3.8,7-5.6c2-1.5,3.8-3.3,5.9-4.8c0.3-0.2,0.7-0.4,0.8-0.8c0.2-0.1,0.5-0.1,0.6-0.2
		c1.4-1.5,3.2-2.5,4.7-3.9c0.3-0.3,0.6-0.5,0.9-0.7c1.3-0.9,1.4-0.8,2.6,0.2c1.8,1.4,3.4,3,5.3,4.1c1,0.6,1.6,1.5,2.7,1.9
		c5.1,4.1,10.4,8.1,15.4,12.3c2.8,2.3,5.5,4.8,8.7,6.6c1.3,1.1,2.8,1.9,4.5,2.1c3.2,0.4,6.4,0.7,9.4-0.8c2.4-1.2,4.5-2.7,6.3-4.8
		c3-2.2,6-4.4,8.9-6.8c2.3-2,4.7-4,7.3-5.6c1.6-1,2.6-2.6,4.1-3.7c0.8-0.6,1.7-1.1,2.5-1.6c1.2-0.7,2-1.8,3.1-2.7
		c0.7,0,1.1-0.6,1.5-1c1.1-1,1.5-1.1,2.7-0.1c1.6,1.2,3.2,2.6,4.8,3.8c0.7,0.6,1.4,1.1,2.2,1.5c0.2,0.6,0.7,1.1,1.2,1.4
		c2.2,1.4,4,3.2,6.1,4.8c4.2,3.1,7.9,6.9,12.4,9.8c0.7,1,1.8,1.5,2.7,2.2c2.4,1.8,4.5,4,7.1,5.6c1.1,1,2.2,2.1,3.4,3.1
		c0,0.2,0.2,0.4,0.4,0.4c0.3,0.4,0.2,0.8,0.1,1.2c-0.5,0.2-0.9,0.6-1.1,1c-0.8,0.6-1.4,1.5-2.3,2l0,0c-0.5,0.3-0.9,0.7-1.3,1
		c0,0,0,0,0,0c-1.1,0.3-1.7,1.4-2.6,1.9c-0.9,0.5-1.6,1.3-2.5,1.9c-1.9-0.4-3.2-1.8-4.6-3c-2.2-1.8-4.3-3.6-6.6-5.3
		c-0.8-0.6-1.3-1.6-2.4-1.7c-0.7-1.3-1.9-2.1-3.1-2.8c-1.8-1.1-3.2-2.8-4.9-4.1c-1.1-0.9-2.2-1.7-3.5-2.3c-1.7-0.3-3.2-1.2-5-1.2
		c-4.7-0.1-8.6,1.7-12,4.7c-1.9,1.7-4,3-5.8,4.8c-1.8,1.8-4,3.1-5.9,4.8c-2.8,2.4-5.5,5-8.6,7c-0.5,0.3-1,0.6-1.4,1
		c-0.3,0.2-0.5,0.5-0.8,0.8c-0.2,0.2-0.4,0.4-0.7,0.6c-0.1,0.1-0.2,0.2-0.4,0.3c-1.8,1.2-3.4,2.7-5.2,4.1c-2,1.6-2.1,1.6-4.3,0.3
		c-0.5-0.3-1-0.7-1.4-1.2c-3.8-3-7.6-6.2-11.4-9.2c-0.7-0.6-1.4-1.2-2.1-1.6c-2.3-2.1-4.9-3.9-7.3-5.9c-2.7-2-5.2-4.3-7.9-6.3
		c-2.5-2-5.2-3.7-8.8-3.2c-1.1,0.2-2.4,0.4-3.4-0.4c-1.4,0-2.6,0.2-3.7,1.1c-0.2,0.4-0.6,0.6-1,0.5c-2,0.8-3.5,2.4-5.1,3.8
		c-2.1,1.8-4.1,3.7-6.3,5.2c-1.7,1.2-3.2,2.5-4.6,3.9c-1.7,1.3-3.7,2.3-5.1,4C34.7,97,34,97.3,33,97.2C32.5,97.2,32,97,31.7,96.6
		L31.7,96.6z"/>
	<path class="st33" d="M121.5,138.2c-0.8,0.1-1.4,0.5-1.8,1.1c-1.3,1.4-2.9,2.5-4.2,3.8c-1.4,0.5-2.4,1.5-3.5,2.5
		c-1.8,1.7-3.9,2.9-5.7,4.7c-0.3,0.3-0.7,0.3-1.1,0c-0.4-0.3-0.7-0.8-1.2-0.8c-0.6-0.9-1.6-1.4-2.4-2c-2.8-2-5.1-4.5-8-6.4
		c-0.8-0.5-1.2-1.5-2.2-1.7c0,0,0,0,0,0c-0.5-0.3-0.9-0.7-1.4-1l0,0c-0.8-0.5-1.3-1.2-2-1.7l0,0c-0.6-0.4-1.1-1-1.7-1.4l0,0
		c-0.5-0.3-1.1-0.5-1.6-0.8c-2.1-1.6-4.2-3.3-6.1-5.2c-1.5-1.4-3.4-2.4-4.8-3.9c-0.6-1.1-1.8-1.7-2.7-2.5c-4.5-3.6-9-7.1-13.5-10.6
		c-1.4-1.1-2.8-2.2-4-3.6c-0.5-0.6-0.6-1,0-1.6c0.8-0.7,1.5-1.4,2.3-2.2c0.2-0.1,0.4-0.3,0.5-0.5c0.2-0.1,0.3-0.3,0.5-0.4
		c1.8-2,4.1-3.3,6.1-5c0.8-0.7,1.8-0.5,2.6,0.2c5.2,4.4,10.5,8.5,15.8,12.7c0.7,0.8,1.5,1.4,2.4,1.8c3.5,3.5,7.8,6,11.4,9.4
		c2.8,2.5,5.9,4.1,9.8,3.8c5.6,0.8,9.6-2.4,13.5-5.7c0.3-0.3,0.6-0.5,0.9-0.8c2.6-2,5.1-4,7.5-6.2c1.9-1.7,4-3.1,5.9-4.8
		c2.3-1.5,4-3.6,6.2-5.1c2-1.4,3.9-2.9,5.7-4.4c0.5-0.3,1-0.8,1.5-1c1.1-0.6,2.1-0.6,2.8,0.7c1,1.1,2.1,2.1,3.4,3
		c1.9,1.2,3.7,2.7,5.3,4.4c0.7,0.8,0.7,1.2-0.1,1.8c-2.8,1.7-4.9,4.3-7.6,6.1c-0.7,0.5-1.4,1.2-1.9,1.9c-1.3,0.4-2.3,1.2-3.2,2.1
		c-1.3,1.3-2.9,2.3-4.3,3.5c-0.9,0.7-1.6,1.4-2.3,2.2c-1,0.2-1.4,1-2,1.7c-0.4,0-0.6,0.2-0.9,0.4c-2.5,2.2-5.3,4.1-7.8,6.4
		c-1.3,1.2-2.8,2-4.1,3.2C122.7,137.1,122,137.6,121.5,138.2z"/>
	<path class="st34" d="M81.1,112.3c-2.5-1.9-5.1-3.7-7.5-5.8c-2.7-2.4-5.8-4.3-8.3-6.8c-1-0.9-1.5-0.9-2.6,0
		c-1.8,1.5-3.7,2.9-5.5,4.4c-0.1,0.1-0.2,0-0.3,0c-0.5-0.7-0.1-1.3,0.3-1.8c0.6-0.6,1.2-1.2,1.8-1.8c0.9-0.8,1.3-1.8,1-3
		c-0.2-0.6,0.1-1.1,0.2-1.6c0.4-1.5,0.7-2.9,0.7-4.5c0.1-2.1,0.2-4.1,0.9-6.1c0.5-1.5,0.6-2.8-1.2-3.4c0-0.2,0-0.3,0.1-0.4
		c1.1-1.8,1.1-1.8-1-2.2c-0.3-0.1-0.7-0.2-0.7-0.7c0.7-0.3,1.7-0.1,2.2-0.8c2.1,0,4.2-0.1,6.3-0.1c1.4,0,2.5,1,3.7,1.6
		c2.7,1.4,4.7,3.7,7,5.5c1.1,0.9,2.5,1.6,3.4,2.8c1.4,1.2,2.8,2.4,4.3,3.5c0.4,0.3,0.7,0.6,0.5,1.1c-1.9,2.2-2.5,4.9-2.4,7.7
		c0.2,2.7,0.1,5.4-0.8,8c-0.4,1.1-0.3,2.1,0.2,3.1c0.4,0.8,0.9,1.6,0,2.5C82.2,113.7,81.9,112.4,81.1,112.3z"/>
	<path class="st31" d="M87.2,137.3c2,0.9,3.2,2.5,4.3,4.3c0.3,0.5-0.1,1.1,0,1.6c0.2,2.5,0.8,5,1,7.5c0.1,1.9,0.5,3.8-0.1,5.8
		c-0.3,1.2-0.3,2.5,0,3.7c0.3,1.1-0.1,2-0.4,2.9c-0.2,0.6-0.6,0.7-1.2,0.4c-1.3-0.6-2.3-1.5-3.3-2.5c0.5-0.1,1.2,0.1,0.7-0.8
		c-0.2-0.4-0.5-0.7-0.4-1.1c0.5-1.4-0.2-2.9,0.2-4.3c0.2-0.8-0.2-1.6,0-2.5c0.5-2.6,0.5-5.3-0.2-8c-0.1-0.6-0.1-1.2,0-1.8
		c0.1-0.5,0.1-1-0.1-1.5c-0.1-0.1-0.1-0.3-0.2-0.5c-0.2-0.7,1-1.1,0.4-1.8C87.7,138.4,87.2,138,87.2,137.3z"/>
	<path class="st31" d="M73.7,125.4c1.6,0.7,2.9,1.9,4.2,3c2.3,2,4.7,3.8,7,5.8c0.3,0.3,0.9,0.4,0.7,1c0,0.1,0,0.2,0,0.4
		c-1.9-1.1-3.3-2.8-5-4.2c-1.8-1.5-3.5-3-5.3-4.3C74.7,126.6,74,126.2,73.7,125.4z"/>
	<path class="st34" d="M56.4,79.3c0.3-0.3,0.6-0.5,1-0.5c0.2,0.3,0.7,0.3,0.5,0.7c-0.3,0.7-0.9,0.6-1.4,0.5
		C56.1,79.9,56.4,79.6,56.4,79.3z"/>
	<path class="st8" d="M52.4,107.8c0.1,0,0.2,0.1,0.2,0.1c0.1,0.2,0,0.4-0.2,0.5c-0.1,0-0.2-0.1-0.3-0.1
		C52,108,52.2,107.9,52.4,107.8z"/>
	<path class="st34" d="M56.3,104.5c0,0.3-0.2,0.5-0.5,0.5C55.7,104.6,55.9,104.5,56.3,104.5z"/>
	<path class="st33" d="M98.2,27.2c1.2-0.4,1.9-1.4,2.8-2.1c1.4-1.1,2.9-2,4.1-3.3c0.7-0.7,1.2-0.6,2,0.2c1.2,1.4,2.9,2.1,4.2,3.4
		c0.1,0.1,0.3,0.1,0.5,0.1c0.6,0.5,1.2,0.9,1.5,1.6c0.1,0.1,0.1,0.2,0.2,0.3c1.6,0.7,2.7,2.1,4.1,3.1c2,1.4,3.8,3,5.7,4.5
		c2.1,1.7,4.2,3.4,6.3,5.1c0.1,0.1,0.3,0.1,0.5,0.1c0.7,0.8,1.3,1.5,0.1,2.5c-5.9,4.9-12,9.5-17.5,14.8c-0.1,0.1-0.3,0.2-0.4,0.3
		c-1.6,1.2-3.2,2.4-4.6,3.9c-0.9,1-1.8,1.2-3,0.6c-3.7-3.3-7.5-6.5-11.4-9.5c-0.5-0.4-1-0.7-1.5-1.1c-2.8-2.4-5.6-4.7-8.5-7
		c-0.1-0.1-0.3-0.2-0.4-0.3c-0.8-0.6-1.6-1-2-1.9c-0.2-0.7,0.1-1.2,0.6-1.6c2.3-2,4.6-4,7-5.9c1.9-1.6,3.9-3.1,6.1-4.4
		c0.5-0.3,0.9-0.7,1.2-1.2C96.2,28.3,97.1,27.7,98.2,27.2z"/>
	<path class="st35" d="M111.4,24.9c-0.6-0.7-1.4-1.3-2.2-1.8c-1.2-0.9-2.2-2.1-3.3-3.1c-0.5-0.5-0.5-1.1-0.3-1.6
		c0.6-1.6,0.1-3.1-0.2-4.6c-0.1-0.3-0.2-0.7-0.2-1c0.2-2.1-0.3-4-1-5.9c-0.2-0.4-0.2-0.8-0.5-1.2c-0.8-1-0.6-2.2-0.5-3.3
		c0.1-0.7,0.5-1.5,1.4-1.4c1.5,0.1,3-0.4,4.5-0.2c1.9,0.3,3.6,0.9,5.1,1.9c3.2,2.3,6.1,4.9,9.2,7.4c0.9,0.7,1.9,1.2,2.5,2.3
		c0.2,0.5,0.6,0.9,1,1.1c1,0.7,1.9,1.4,1.4,2.8c-0.1,0.2,0.1,0.6,0.2,0.8c1.2,1.6,1.2,3.2,0.5,5c-0.8,1.9-1.3,3.9-1.1,6.1
		c0.1,0.9-0.4,1.8-0.3,2.8c0.1,0.7-0.9,1.2-1.4,1.8c-0.4,0.4-0.9,0-1.3-0.1c-1.1-0.4-2.1-1-3.2-1.4c-0.7-0.3-1.2-0.7-2-0.4
		c-0.8,0.3-1.2-0.5-1.5-1.1c-0.3-0.5-0.4-1.1-0.5-1.6c-0.1-0.9-0.5-1.2-1.2-0.8c-1.1,0.6-1.8,0-2.5-0.6
		C113.3,26,112.5,25.2,111.4,24.9z"/>
	<path class="st36" d="M112,57.4c4.7-4.7,10-8.7,15.3-12.8c1-0.8,1.7-1.8,2.8-2.5c0.5-0.3,0.6-0.8,0.2-1.3c-0.2-0.2-0.3-0.5-0.3-0.8
		c0.4,0.1,0.6,0.5,0.9,0.7c0.5,0.4,0.4,0.9,0,1.3c-1.4,1.2-2.8,2.5-4.2,3.7c-1.2,1-2.6,2-3.8,3c-0.6,0.5-1,1.2-1.5,1.8
		c-1,1.3-2.5,2.1-3.6,3.3c-1.4,1.6-2,3.2-1.8,5.5c0.3,3.2,2,5.8,3,8.7c0.6,1.6,1.3,3.1,1.2,4.9c0,1.3,0.3,1.5,1.5,0.8
		c2.8-1.7,5.3-3.9,7.9-5.9c1.5-1.1,2.8-2.4,4.5-3.3c0.9-0.5,1.5-1.3,2.2-2c1-1,2.2-1.8,3.3-2.6c0.4-0.3,0.8-0.4,1.3-0.4
		c-0.4,0.8-1.2,0.9-1.9,1.4c-1.4,0.9-2.2,2.3-3.6,3.3c-1.6,1.1-3.3,2.2-4.7,3.6c-1.4,1.4-3.3,2.1-4.5,3.7c-0.8,1-1.9,1.7-3,2.5
		c-1,0.7-2.1,1.3-2.8,2.3c-0.5,0.8-1.6,0.8-2.4,1.2c-0.8,0.6-1.3,1.6-2.3,2c-1.1,0.6-2.1,0-1.9-1.2c0.5-2.7-0.8-4.8-1.6-7.1
		c-0.7-2-1.6-3.9-2.3-5.8C109,62.7,109.3,59,112,57.4z"/>
	<path class="st37" d="M88.9,74.3c-0.2-0.1-0.4-0.1-0.5-0.2c-2.1-2.1-4.6-3.7-6.9-5.6c-1.5-1.2-2.7-2.7-4.3-3.7
		c-1.4-0.8-2.5-1.9-3.5-3.1c0.3,0,0.6,0,0.8,0.2c2.3,2.1,4.9,3.7,7.4,5.5c0.8,0.6,1.4,1.3,2.2,1.9c0.2,0.2,0.6,0.5,0.9,0.3
		c0.4-0.2,0.2-0.6,0.1-0.9c-0.3-0.7,0.1-1.3,0.7-1.5c1.1-0.3,1.2-0.9,0.9-1.9c-0.2-0.5-0.1-1.1,0.1-1.7c0.2-0.5,0.2-1.1,0.1-1.6
		c-0.5-2.9-0.9-5.8-0.9-8.8c0-0.8,0.2-1.6,0.2-2.5c0-2.5-1.7-3.9-3-5.6c-0.3-0.4-0.7-0.7-1-1.1c0.2-0.3,0.5-0.2,0.7,0l0,0
		c2.3,2,4.5,3.9,6.8,5.8c1.1,0.9,1.5,2,1.4,3.3c-0.3,3.7,0.7,7.2,1.6,10.7c0.1,0.5,0.3,1.1,0.2,1.7c-0.2,2.7,0.2,5.3,0.5,7.9
		c0.1,0.8,0.4,1.8-0.5,2.3c-0.9,0.5-1.6-0.1-2.3-0.5C90,74.9,89.5,74.6,88.9,74.3z"/>
	<path class="st30" d="M82.8,44.2c-0.2,0-0.5,0-0.7,0c-0.8-0.2-1.3-0.9-1.9-1.3c-0.7-0.5-0.6-2.4,0.1-3.1c0.9-0.8,0.8-1.9,1.4-2.8
		c0.2-0.3,0.2-0.9,0-1.1c-0.6-1-0.7-2.2-1.3-3.2c-1.4-2.5-2.2-5.3-2.7-8.1c-0.1-0.3-0.1-0.7,0.1-1c0.5-0.6,0.6-1.2,0.3-1.9
		c-0.3-0.6,0.1-1,0.5-1.3c0.6-0.5,1-1.2,1.5-1.8c0.1-0.2,0.3-0.4,0.1-0.6c-0.2-0.3-0.5-0.2-0.8,0c-0.6,0.4-1.2,0.9-1.7,1.3
		c-0.3,0.3-0.6,0.5-1,0.5c1.2-1.8,3.3-2.6,5-4c0.3-0.3,0.8-0.3,1.2-0.6c0.3-0.3,0.6-0.6,1-0.3c0.5,0.3,0.1,0.8,0,1.2
		c-0.4,1.4-0.9,2.8-1.2,4.2c-0.3,1.3-0.2,2.5,0.2,3.8c0.7,2.6,1.7,5.1,2.5,7.7c0.6,2-0.4,4.8-2.1,6c-1,0.7-1.7,1.6-2.1,2.7
		c0.1,0.7-1,1.3-0.3,2.1C81.5,43,82.2,43.6,82.8,44.2z"/>
	<path class="st30" d="M75.4,20.8c0.3-0.5,0.7-1,1.4-1C76.5,20.3,76.1,20.8,75.4,20.8z"/>
	<path class="st38" d="M148.9,99.8c-0.2-0.1-0.5-0.1-0.6-0.2c-0.8-0.8-1.5-0.5-2.3,0c-0.5,0.3-0.8,0.9-1.4,0.9
		c0-0.1-0.1-0.2-0.1-0.3c2.4-3.3,0.4-6.4-0.2-9.6c-0.6-3.3-2.8-5.2-5.3-7.1c-0.9-0.7-2.1-0.6-2.8-1.4c0-0.1-0.1-0.2-0.1-0.2
		c1.3-1.7,3.2-2.4,4.8-3.7c0.4-0.3,1-0.3,1.5-0.4c0.6-0.1,1.2-0.1,1.7-0.5c0.2-0.1,0.4-0.3,0.6-0.3c3,0,6.1-0.7,8.7,1.5
		c0.5,0.9,1.3,1.6,2.2,2c0.6,0.3,1,0.6,0.7,1.3c-0.4,1.1-0.1,1.8,0.9,2.4c0.8,0.5,0.8,0.9,0,1.3c-0.7,0.3-0.5,0.7-0.6,1.3
		c-0.1,1.6-0.1,3.2-0.5,4.8c-0.4,1.2-0.3,2.4-0.3,3.7c0,0.5,0.1,1.1-0.2,1.5c-1,1.2-0.8,2.6-0.8,4c0,0.2-0.1,0.3-0.1,0.6
		c-1.5-0.1-3-0.1-4.3-1C149.9,99.9,149.4,99.7,148.9,99.8z"/>
	<path class="st32" d="M33,97.1c0.9,0.2,1.5-0.6,2.3-0.8c-0.4,1.2-1.4,1.2-2.3,1.1c-0.1-0.1-0.1-0.1-0.1-0.2
		C32.9,97.1,32.9,97.1,33,97.1z"/>
	<path class="st26" d="M33,97.1c0,0.1,0,0.2,0,0.3c-0.6,0-1.2,0-1.3-0.8C32.2,96.5,32.6,96.9,33,97.1z"/>
	<path class="st39" d="M32.3,80c-0.8,1.1-1.9,1.9-3.1,2.5c-0.8,0-1.5-0.1-2.1,0.7c-0.4,0.6-1.1,0.4-1.4-0.1
		c-0.5-0.8-0.9-1.6-0.7-2.7c0.6-2.5,1.5-4.9,1.5-7.5c1.1-1.8-0.2-3.8,0.6-5.6c0.1-0.2,0-0.6-0.2-0.8c-0.9-1.3-0.6-2.9-0.8-4.3
		c-0.1-0.6,0.2-1.1,0.6-1.5c2.1-1.6,4-3.4,5.9-5.2c0.2-0.2,0.4-0.3,0.5-0.4c0.5,0.5,1,0.3,1.6,0.1c0.7-0.2,1.2-0.1,1.5,0.7
		c0.7,2.2,1,4.4,1.1,6.7c0.1,1.4,0.2,2.9,0.4,4.3c0.2,1.1,0.3,2.1,0,3.2c-0.2,0.6-0.2,1.2-0.1,1.8c0.3,2.7-1,4.4-3.1,5.9
		C33.8,78.4,32.7,78.9,32.3,80z"/>
	<path class="st32" d="M24.2,90.6c-0.3,0-0.5-0.1-0.8-0.3c-0.3-0.2-0.6-0.5-0.8,0c-0.1,0.3,0,0.6,0.2,0.7c1.2,0.7,2.1,1.6,1.4,3.1
		c0,0.1,0.1,0.3,0.1,0.5c1.5,3.2,0.9,6.2-0.6,9.1c-0.2,0.3-0.3,0.7-0.4,1.1c-0.2,0.7-0.5,1.4-1.2,1.7c-0.7,0.3-0.9,0.9-0.6,1.7
		c-2-1.7-3.9-3.4-5.3-5.7c0.9-0.7,1.1-2.1,2.3-2.6c0.3-0.1,0.3-0.5,0.3-0.7c-0.3-1.3,0.3-2.7-0.2-4c-0.1-0.4-0.2-0.8,0-1.1
		c0.8-1.3,0.3-2.6-0.2-3.8c-0.6-1.5-0.8-3.1-0.9-4.7c-0.2-2.8-0.6-5.6-1.6-8.2c-0.1-0.3-0.5-0.6-0.7-0.9c-0.8-1.1-1.3-2.3-0.5-3.6
		c0.2-0.4,0.2-0.7-0.1-1.1c-0.4-0.6-0.4-1.2,0.1-1.7c1.6-1.4,3-3.1,5-3.9c-0.3,0.6-0.5,1.1,0.1,1.7c0.7,0.6,0.6,1.3-0.1,1.8
		C19,70.3,19,71,19.6,71.8c0.2,0.3,0.6,0.6,0.4,1c-0.3,0.7,0.2,1.2,0.5,1.7c0.4,0.6,0.6,1.3,0.6,2c0.1,1.7-0.4,3.4,0.5,5
		c0.3,0.5-0.3,0.8-0.6,1.1c-0.9,1-0.9,1.3,0,2.3c0.4,0.4,0.8,0.8,0.5,1.4c-0.4,0.9,0.3,1.2,0.9,1.5C22.3,89.2,24.2,89.3,24.2,90.6z"
		/>
	<path class="st40" d="M80.8,42.5c-0.8-0.8-0.1-1.4,0.3-2.1c0.8-0.5,1.5-0.9,2-1.7c0.2-0.3,0.4-0.6,0.7-0.7c2.3-1.3,3.8-3.4,5.8-5
		c0.9-0.4,1.9-0.6,2.5-1.6c0.3-0.5,0.9-0.8,1.5-1c0.8-0.3,1.4-0.8,1.8-1.5c0.5-0.8,1.4-1.1,2-1.7c0.3,0,0.5,0,0.8,0
		c-1.8,1.3-3.2,2.9-4.9,4.3c-2.1,1.6-4.2,3.2-6.2,4.9c-1.6,1.4-3.2,2.8-4.9,4.1C81.5,41,80.7,41.4,80.8,42.5z"/>
	<path class="st25" d="M185,92.6c0.7-0.8,1.3-1.7,2.3-2C186.7,91.4,186.1,92.3,185,92.6z"/>
	<path class="st25" d="M183.6,93.6c0.3-0.5,0.7-0.9,1.3-1C184.7,93.2,184.3,93.6,183.6,93.6z"/>
	<path class="st14" d="M188.7,88.6c0.2,0,0.5,0,0.5,0.3c0,0.3-0.3,0.3-0.5,0.3C188.5,89,188.5,88.8,188.7,88.6z"/>
	<path class="st20" d="M188.7,88.6c0,0.2,0,0.4,0,0.7c-0.1,0.1-0.2,0.2-0.3,0.3c0-0.4-0.1-0.8-0.1-1.2
		C188.5,88.4,188.6,88.5,188.7,88.6z"/>
	<path class="st13" d="M24.2,90.6c-0.2-0.4-0.5-0.8-0.9-0.9c-1.2-0.2-1.1-0.9-0.8-1.8c0.2,0,0.5,0,0.7,0c-0.1,1.1,0.7,1.7,1.5,2.3
		c1,0.7,1.8,1.5,2.6,2.4c-0.2,0.2-0.5,0.2-0.7,0l0,0C25.6,92.1,25.1,91.1,24.2,90.6L24.2,90.6z"/>
	<path class="st23" d="M87.9,136.6c1,0.2,1.4,1,2,1.7C89,138.2,88.5,137.4,87.9,136.6z"/>
	<path class="st23" d="M86.3,135.3c0.8,0.1,1.2,0.8,1.7,1.4C87.1,136.6,86.6,135.9,86.3,135.3z"/>
	<path class="st23" d="M85.6,135.3c-0.2-0.3-0.5-0.7-0.7-1c0.7,0,1,0.5,1.4,1C86,135.3,85.8,135.3,85.6,135.3z"/>
	<path class="st23" d="M90,138.3c0.7,0.1,1,0.5,1.4,1C90.6,139.3,90.3,138.9,90,138.3z"/>
	<path class="st32" d="M26.5,92.6c0.2,0,0.5,0,0.7,0c0.9,0.3,1.4,1,2,1.7C28.2,94,27.1,93.7,26.5,92.6z"/>
	<path class="st32" d="M24.2,90.6c1.1,0.3,1.7,1.2,2.4,2c-0.5,0-0.8-0.1-1.1-0.5C25.1,91.6,24.6,91.1,24.2,90.6z"/>
	<path class="st32" d="M29.3,94.3c0.9,0.2,1.4,1,2,1.7C30.3,95.8,29.8,95,29.3,94.3z"/>
	<path class="st41" d="M132.7,109.9c-0.8,1.3-2.2,2.1-3.4,3c-1.8,1.3-3.3,2.9-5,4.2c-1.6,1.2-3,2.6-4.7,3.7
		c-0.3,0.1-0.5,0.3-0.7,0.4c-1.8,1.5-3,1.2-3.3-0.9c-0.6-4-2.6-7.4-4.3-10.9c-1.5-3.2-0.9-6.3,1.8-8.6l0,0c0.3-0.1,0.5-0.4,0.7-0.6
		c0-0.4,0.3-0.6,0.7-0.7c0.5-0.4,1-0.7,1.3-1.1c2.1-1.7,4.2-3.5,6.3-5.2c1.8-1.5,3.4-3.3,5.4-4.5c1.8-1.1,3-2.7,4.6-3.8
		c1.3-1,2.5-2.2,4-3c0,0,0.1,0.1,0.1,0.1c-0.2,1.3-1.2,1.8-2.1,2.5c-4.1,3.3-8.1,6.8-12.1,10.2c-2.8,2.4-2.5,6.2-1.2,8.8
		c1.1,2.1,2.1,4.2,3.3,6.3c0.7,1.3,1.4,2.7,1.2,4.5c1.6-0.4,2.4-1.6,3.6-2.3c0.8-0.4,1.4-1.1,2.2-1.6
		C131.5,109.9,132,109.4,132.7,109.9z"/>
	<path class="st42" d="M113,100.7c-1.1,1.4-1.6,3.1-2.2,4.7c-0.2,0.6-0.3,1.2,0,1.8c0.3,0.7,0.5,1.4,0.8,2c1.3,2.6,2.5,5.3,3.7,7.9
		c0.5,1.2,0.2,2.4,0.7,3.6c0.5,1,1.1,1.4,2.1,0.8c0.5-0.3,0.8-0.8,1.4-0.8c-2.5,2.7-5.4,4.7-8.7,6.2c-0.9,0.4-1.9,0.6-3,0.5
		c-1-0.1-1.9,0.1-2.9-0.1c0-0.2,0.2-0.4,0.4-0.5c1.8-0.8,2.2-1.5,1.8-3.4c-0.4-2.1-1-4.1-1.5-6.2c-0.8-3.1-2.1-6.2-2-9.5
		c0-0.8-0.5-1.5-1-2.1c-0.4-0.4-1-0.8-0.5-1.6c0.8,0.5,1.5,1.2,2.3,1.6c1.2,0.6,1.3,0.6,2.3-0.3c1.6-1.4,3.3-2.8,5-4.1
		C112.2,101,112.6,100.7,113,100.7z"/>
	<path class="st43" d="M91.7,51.3c1.5,0.6,2.6,1.8,3.8,2.7c2.9,2.3,6,4.5,8.5,7.3c0.2,0.2,0.4,0.4,0.5,0.6c-0.4,3.3,0.2,6.5,1.1,9.6
		c0.8,3.1,1.9,6.1,1.8,9.4c0,1.4,1.1,1.3,2.1,1.2c0.9,0,1.7-0.8,2.6-0.1c-1,1.1-2.3,1.2-3.6,1.2c-2.2,0.1-4.4,0.2-6.6-0.1
		c-1.8-0.3-3.3-1.1-4.5-2.4c0.1-0.1,0.2-0.2,0.4-0.2c2,0,2,0,1.4-1.9c-0.6-2-0.7-4-0.9-6c-0.5-4.6-1.7-9.1-1.7-13.7
		c0-2-1-3.6-2.6-4.9C93,53.4,91.6,52.9,91.7,51.3z"/>
	<path class="st44" d="M91.7,51.3c0.6,1,1.5,1.7,2.5,2.4c2,1.3,2.9,3.2,2.9,5.5c0.1,3.1,0.3,6.3,1.2,9.3c0,0.2,0.1,0.3,0.1,0.5
		c-0.1,2.1,0.5,4.2,0.7,6.3c0.1,1.4,0.6,2.7,0.8,4.1c0,0.3,0.2,0.5,0.2,0.8c0.2,1.1-0.3,1.5-1.4,1.1c-0.5-0.2-0.8-0.7-1.4-0.5
		c-2-1.1-4-2.3-5.6-3.9c-0.9-0.9-2.1-1.5-2.9-2.6c0.5-0.1,0.9,0,1.3,0.3c0.4,0.3,0.8,0.5,1.2,0.7c1.4,0.6,1.9,0.3,1.7-1.2
		c-0.2-1.1-0.1-2.3-0.4-3.3c-0.4-1.7-0.3-3.3-0.2-5c0-0.5,0-0.9-0.1-1.3c-0.6-1.5-0.6-3.2-1.2-4.7c-0.4-1.1-0.6-2.3-0.5-3.5
		c0.1-1,0-2,0-3c0-1.4-0.6-2.4-1.7-3.3c-2.1-1.8-4.4-3.5-6.1-5.7c1,0,1.4,0.9,2,1.4c2.1,1.6,4.1,3.3,6.2,5
		C91.3,50.7,91.6,51,91.7,51.3z"/>
	<path class="st45" d="M112,82.1c-0.7-0.1-1.3,0.3-1.9,0.5c-0.7,0.2-1.4,0.3-2.1,0c-1.2-0.4-1.3-0.6-1.1-1.8c0.1-0.8,0-1.7-0.1-2.5
		c-0.7-3.8-2-7.4-2.7-11.2c-0.3-1.4-0.1-2.9-0.1-4.4c0-0.4,0.3-0.6,0.6-0.8c1.2,0.3,1.9,0,2.9-0.9c1.4-1.4,2.9-2.8,4.7-3.7
		c-0.7,1-1.5,1.8-1.8,3.1c-0.4,1.7-0.3,3.4,0.3,4.9c0.8,1.9,1.6,3.8,2.4,5.8c0.7,1.8,1.4,3.7,1.7,5.6c0.1,0.4,0.1,0.7-0.2,0.9
		c-0.4,0.5-0.4,0.9,0,1.3c0.4,0.4,0.8,0,1.3-0.1c0.6-0.1,0.9-0.7,1.3-1.1c0.3-0.3,0.6-0.5,1-0.6c-0.4,1.1-1.4,1.7-2.2,2.4
		C114.7,80.7,113.4,81.5,112,82.1z"/>
	<path class="st46" d="M102.2,104.1c0,0.7,0.5,1,0.9,1.3c0.8,0.7,1.3,1.5,1.1,2.5c-0.4,2.1,0.5,3.9,1,5.7c0.8,3.3,1.8,6.6,2.6,9.9
		c0.3,1.2-0.2,2.1-0.6,3c-0.2,0.4-0.6,0.5-1,0.5c-0.4,0-0.8-0.1-1.1,0.2c-3.4,0.5-6.4-0.6-9-2.9c-0.4-0.4-1-0.5-1.3-1.1
		c0.9-0.6,1.5,0,2.1,0.4c1,0.7,2.1,1.1,3.2,1.5c0.8,0.3,1,0,0.8-0.8c-1.1-6.2-2-12.4-2.9-18.7c-0.6-4.5-3.8-6.8-6.7-9.5
		c-1.1-0.7-2.4-1.3-2.9-2.7c0-0.2,0.1-0.3,0.2-0.5c0.5-0.1,0.7,0.2,1,0.5c2.9,2.3,5.7,4.6,8.4,7c0.9,0.8,1.9,1.4,2.9,2
		C101.4,103.2,101.9,103.5,102.2,104.1z"/>
	<path class="st47" d="M88.6,93.3c0,0.1,0,0.2-0.1,0.3c-1.1-0.1-1.9-0.7-2.3-1.7c-1-0.9-1.9-1.8-3-2.6c-0.7-0.5-1.3-1-1.7-1.8
		c0.1,0,0.1,0,0.2,0C84,89.4,86.6,91,88.6,93.3z"/>
	<path class="st42" d="M115.7,98.2c-0.2,0.7-0.6,1.1-1.3,1.1C114.7,98.8,115.1,98.4,115.7,98.2z"/>
	<path class="st42" d="M113.7,100.1c-0.1,0.4-0.3,0.6-0.7,0.6C113.1,100.4,113.4,100.2,113.7,100.1z"/>
	<path class="st48" d="M132.7,109.9c-0.6,0-1.1,0.3-1.5,0.7c-1.4,1.3-3.2,2.1-4.6,3.5c-0.2,0.2-0.6,0.4-0.9,0.5
		c-0.3,0.1-0.6,0.4-0.9,0.1c-0.3-0.2-0.2-0.5-0.1-0.8c0.4-1-0.1-1.9-0.5-2.8c-0.4-0.9-0.7-1.8-1.3-2.6c-1.1-1.6-1.6-3.5-2.7-5.1
		c-0.7-1.1-1-2.3-0.9-3.5c0-0.2,0-0.3,0-0.5c-0.6-2.5,1-4.1,2.7-5.5c0.9-0.8,1.8-1.6,2.6-2.4c1.4-1.3,2.8-2.6,4.4-3.6
		c1.4-1,2.5-2.5,4-3.4c1.2-0.7,2.1-1.7,3-2.7c3.4,0.6,5.5,3,7.6,5.4c0.2,0.2,0.3,0.5,0.4,0.7c0.7,2.7,1.4,5.4,2.1,8
		c0.3,1.2-0.1,2.3-0.8,3.3c-0.2,0.4-0.5,0.7-0.8,1.1c-1.3,1.4-2.8,2.6-4.4,3.6c-1.2,0.8-2.2,1.6-3.3,2.6
		C135.7,107.9,134.4,109.1,132.7,109.9z"/>
	<path class="st47" d="M91.3,96c0.5-0.1,0.8,0.3,1.2,0.6c1.2,1.2,2.5,2.3,3.6,3.6c0.8,0.9,1.4,1.9,2,2.9c0.1,0.1,0.2,0.3,0.2,0.5
		c-0.2,2,0.5,3.8,0.8,5.8c0.4,2.4,0.8,4.7,1.1,7.1c0.4,2.4,0.4,4.8,0.9,7.1c0.1,0.4,0.2,0.9,0.4,1.3c0.1,0.3,0.3,0.6,0,0.9
		c-0.3,0.3-0.8,0.4-1.1,0.2c-1.2-0.7-2.8-0.8-3.9-1.9c-0.5-0.5-1.1-0.8-1.8-0.7c-1-0.4-1.7-1.3-2.5-2c-2-1.8-4.2-3.3-6.3-5
		c-0.9-0.7-1.8-1.5-2.5-2.4c0-0.1,0.1-0.2,0.3-0.3c0.2,0,0.4,0,0.7,0.1c0.3,0.2,0.6,0.5,0.9,0.7c3.4,2.5,6.7,5.3,10.5,7.8
		c0.2-4.7-0.4-9.1-1.2-13.4c-0.5-2.8-0.9-5.7-1.3-8.5c-0.1-1-0.5-1.8-1-2.6C91.9,97.3,91.2,96.9,91.3,96z"/>
	<path class="st47" d="M81.1,112.3c0.9-0.1,1.2,1,2.1,1c0.3,0.1,0.5,0.3,0.4,0.6c0,0-0.1,0.1-0.1,0.1
		C82.5,113.6,81.6,113.2,81.1,112.3z"/>
	<path class="st49" d="M83.6,113.9c-0.1-0.2-0.3-0.4-0.4-0.6c0.5-0.6,0.3-1.3-0.1-1.9c-0.7-1.2-1-2.4-0.4-3.9
		c0.9-2.7,1.2-5.6,0.5-8.4c0-0.2-0.1-0.5,0-0.7c0.6-1.5,0.6-3.1,1.3-4.5c0.4-0.9,0.9-1.6,1.7-2c0.8,0.6,1.5,1.1,2.3,1.7
		c0.7,1,1.7,1.7,2.8,2.4c0.5,0.7,1,1.4,1.6,2c0.5,0.6,0.8,1.3,0.8,2c0,1.4,0.5,2.7,0.7,4c0.2,2.6,0.9,5.2,1.1,7.8c0,0.1,0,0.2,0,0.3
		c0.9,1.7,0.3,3.6,0.6,5.4c0.1,0.4-0.1,0.8,0.2,1.1c0.5,0.5,0.4,1,0,1.5c-0.5,0.5-0.3,1,0.1,1.5c0.2,0.3,0.4,0.7,0,1.1
		c-0.4,0.4-0.7,0.1-1-0.1c-2.2-1-3.8-2.9-5.9-4.3c-1.3-0.8-2.4-1.8-3.6-2.7c-0.4-0.3-0.7-0.5-0.9-1c-0.2-0.2-0.3-0.7-0.7-0.7
		C84,113.9,83.8,113.9,83.6,113.9z"/>
	<path class="st34" d="M84.2,114c1-0.6,0.6,0.3,0.7,0.7C84.6,114.5,84.3,114.3,84.2,114z"/>
</g>
<path class="st0" d="M99,1.1c-2.8,1.1-4.4,2.7-4.4,2.7l-0.3,0.3V3.8C95.9,2.6,97.4,1.7,99,1.1z"/>
<path class="st0" d="M104.8,106.7v20.9c0,0-0.1,0-0.2,0h-0.1c-0.2,0-0.2,0-0.2,0v-20.9l0.3-0.2L104.8,106.7z"/>
<path class="st0" d="M104.5,171.9c-0.2,0-0.3,0-0.5,0v0C104.2,171.9,104.3,171.9,104.5,171.9z"/>
<line class="st50" x1="105.4" y1="151.3" x2="198.3" y2="83.3"/>
<path class="st0" d="M107.2,263.5c0.1,0,0.3,0,0.6,0H107.2z M107.2,263.5c0.1,0,0.3,0,0.6,0H107.2z M107.1,263.5h-0.6
	C106.8,263.5,107,263.5,107.1,263.5z"/>
<path class="st0" d="M104.8,106.7v20.9c0,0-0.1,0-0.2,0h-0.1c-0.2,0-0.2,0-0.2,0v-20.9l0.3-0.2L104.8,106.7z"/>
<path class="st0" d="M105,171.8L105,171.8c-0.2,0-0.3,0-0.5,0C104.7,171.9,104.8,171.9,105,171.8z"/>
<path class="st0" d="M114.8,3.8v0.3l-0.3-0.3c0,0-1.3-1.2-3.4-2.3C112.2,2.1,113.5,2.9,114.8,3.8z"/>
<path class="st0" d="M-91,91.1c3.8,0,8.2-1.2,13.1-5.1l85.8-68c0,0,13.1-10.2,0-23.3L-80.6-77c0,0-8.9-8.7-20.2,0l-0.4,25.6l7.8-6.3
	c1.4-1.1,3.3-1.1,4.6,0l21.5,17.3c0.7,0.6,0.7,1.6,0,2.2L-91-18.1V2.8c0,0,4.4,0.8,11.8-5.1l27-21.9c1.4-1.1,3.3-1.1,4.7,0L-7.8,7.5
	c0.7,0.6,0.7,1.7,0,2.2l-9.4,7.3c-0.5,0.4-1.2,0.4-1.7,0L-39.9,0.4c0,0-10.1-9.4-19.6,0l-31.3,25.6v20.9c0,0,5,1,14.9-7.1l26-20.9
	c0.5-0.4,1.2-0.4,1.7,0l11.9,9.7c0.7,0.6,0.7,1.7-0.1,2.2l-54.5,39.6L-91,91.1z"/>
<polygon class="st0" points="107.1,242.3 107.2,242.3 107.2,242.3 "/>
<path class="st0" d="M108.4,263.4L108.4,263.4l-0.7,0.1C108,263.5,108.2,263.5,108.4,263.4z"/>
<g>
	<linearGradient id="SVGID_1_" gradientUnits="userSpaceOnUse" x1="0" y1="85.9325" x2="208.4233" y2="85.9325">
		<stop  offset="0" style="stop-color:#FFFFFF"/>
		<stop  offset="0" style="stop-color:#3D53CF"/>
		<stop  offset="5.844506e-02" style="stop-color:#2765D0"/>
		<stop  offset="0.1177" style="stop-color:#007DCE"/>
		<stop  offset="0.1758" style="stop-color:#009AC0"/>
		<stop  offset="0.2326" style="stop-color:#009AC0"/>
		<stop  offset="0.2916" style="stop-color:#00B0C7"/>
		<stop  offset="0.3497" style="stop-color:#01B2AD"/>
		<stop  offset="0.4079" style="stop-color:#73AB91"/>
		<stop  offset="0.4652" style="stop-color:#A8A87A"/>
		<stop  offset="0.5233" style="stop-color:#D6A564"/>
		<stop  offset="0.5815" style="stop-color:#FF8F59"/>
		<stop  offset="0.6399" style="stop-color:#FF7F70"/>
		<stop  offset="0.6972" style="stop-color:#FF6E84"/>
		<stop  offset="0.7552" style="stop-color:#FF6D85"/>
		<stop  offset="0.8137" style="stop-color:#ED5D9E"/>
		<stop  offset="0.8711" style="stop-color:#CF51AB"/>
		<stop  offset="0.9298" style="stop-color:#BF4ABB"/>
		<stop  offset="1" style="stop-color:#A945C1"/>
	</linearGradient>
	<path class="st51" d="M202.6,75.4L114.5,4.1l-0.3-0.3c0,0-1.3-1.2-3.4-2.3c-0.2-0.1-0.3-0.1-0.5-0.2c-0.2-0.1-0.3-0.1-0.5-0.2
		c-0.2-0.1-0.4-0.2-0.6-0.2c-0.2,0-0.3-0.1-0.4-0.2c-0.1,0-0.3-0.1-0.4-0.1c-0.4-0.1-0.8-0.2-1.3-0.3c-0.2,0-0.3-0.1-0.5-0.1
		c-0.4-0.1-0.8-0.1-1.2-0.2c-0.2,0-0.4,0-0.5,0c-0.4,0-0.8,0-1.2,0c-0.2,0-0.3,0-0.5,0c-0.4,0-0.8,0.1-1.2,0.2c-0.1,0-0.3,0-0.4,0.1
		c-0.1,0-0.2,0-0.4,0.1c-0.3,0.1-0.6,0.2-0.9,0.2c-0.2,0-0.3,0.1-0.5,0.1c-0.1,0.1-0.3,0.1-0.4,0.2C99.1,1,98.9,1,98.7,1.1
		c-2.8,1.1-4.4,2.7-4.4,2.7l-0.3,0.3L5.8,75.4c-13.1,13.1,0,23.3,0,23.3l85.8,68c4.4,3.6,8.5,4.9,12.1,5.1c0.2,0,0.3,0,0.5,0
		c0.2,0,0.3,0,0.5,0c3.5-0.2,7.7-1.5,12.1-5.1l85.8-68C202.6,98.7,215.7,88.5,202.6,75.4z M80.9,40.3l21.5-17.3
		c0.5-0.4,1.2-0.7,1.8-0.8c0.7,0.1,1.3,0.4,1.8,0.8l21.5,17.3c0.7,0.6,0.7,1.6,0,2.2l-20.9,17.8c-1.4,1.2-3.4,1.2-4.8,0L80.9,42.5
		C80.2,41.9,80.2,40.9,80.9,40.3z M158.4,111.6l-52,37.8c-1.3,0.9-3,0.9-4.3,0l-52-37.8c-0.8-0.5-0.8-1.7-0.1-2.3l11.9-9.7
		c0.5-0.4,1.2-0.4,1.7,0l26,20.9c7.4,6.1,12.1,7,13.9,7.1h1.3c0.2,0,0.4,0,0.7-0.1c2.2-0.3,6.6-1.6,13.3-7.1l26-20.9
		c0.5-0.4,1.2-0.4,1.7,0l11.9,9.7C159.2,110,159.1,111.1,158.4,111.6z M186.9,90.6l-9.4,7.3c-0.5,0.4-1.2,0.4-1.7,0l-20.9-16.7
		c0,0-10.1-9.4-19.6,0l-30.5,24.9l-0.5,0.1l-0.5-0.1L73.2,81.2c-9.4-9.4-19.5,0-19.5,0L32.7,97.8c-0.5,0.4-1.2,0.4-1.7,0l-9.4-7.3
		c-0.7-0.6-0.7-1.6,0-2.2l39.7-31.7c1.4-1.1,3.3-1.1,4.7,0l27,21.9c5.6,4.5,9.4,5.1,11,5.1c0,0,0.1,0,0.2,0h0.2c0.1,0,0.1,0,0.2,0
		c1.6,0,5.4-0.7,11-5.1l27-21.9c1.4-1.1,3.3-1.1,4.7,0l39.7,31.7C187.6,88.9,187.6,90,186.9,90.6z"/>
	<g>
		<path class="st52" d="M260,93.3h-14c2.2,14.2,10.6,25.2,25.5,27.7v-11.4C264.9,106.9,261.4,100.5,260,93.3z M245.6,80h13.8
			c0.9-9,4.6-16.8,12-19.8V49.1C255.7,52.1,247.2,65,245.6,80z M291.5,105.2c-1.6,2-3.7,3.8-6.8,4.8v11c7.3-1.2,12.8-4.3,16.7-8.7
			L291.5,105.2z M284.8,48.8V60c2.1,0.7,3.8,1.7,5.2,3l11.6-5.7C297.8,53,292.2,49.9,284.8,48.8z"/>
		<path class="st52" d="M378.6,84.7c0,19.7-11.6,36.9-34.4,36.9c-21.8,0-33.5-16.2-33.5-36.6c0-20.6,12.6-36.6,34.5-36.6
			C365.7,48.4,378.6,63.1,378.6,84.7z M324.5,84.7c0,14.4,6.7,25.9,20.2,25.9c14.6,0,20.1-12.2,20.1-25.7c0-14.1-6.2-25.5-20.2-25.5
			C330.6,59.4,324.5,70.4,324.5,84.7z"/>
		<path class="st52" d="M406.8,49.4v71.1h-13.3V49.4H406.8z"/>
		<path class="st52" d="M425.7,120.6V49.4h16.8c9.3,16.2,27.7,47.3,31.2,55h0.2c-0.8-8-0.7-20-0.7-31.6V49.4h12.2v71.1h-15.9
			c-8.2-14.4-28.1-49.2-32-57.4h-0.2c0.5,6.9,0.6,20.6,0.6,33.4v24H425.7z"/>
		<path class="st52" d="M547.7,82.9c5-2.1,9.5-7.3,9.5-15.5c0-7.5-4.2-14.4-14.1-17v14.4c0.5,1.1,0.8,2.4,0.8,3.9
			c0,5.7-3.4,9.2-11.7,9.2h-14.9V49.4h-13.1v71.1h13.1V88.5h14.5c9.7,0,13.8,4.2,13.8,10.6c0,3.1-0.8,5.6-2.5,7.4v13.1
			c9.9-2.6,16.2-10.1,16.2-20.1C559.3,89.7,552.5,84.7,547.7,82.9z M527.9,49.4v10.5h4.6V49.4H527.9z M527.9,110.1v10.5h4.6v-10.5
			H527.9z"/>
		<path class="st52" d="M621.5,89h-34.5v20.5h38l-1.6,11.1h-49.3V49.4h49v11.1h-36V78h34.5V89z"/>
		<path class="st52" d="M652.2,102.5l-6.3,18.1h-13.2l24.6-71.1H674l25.6,71.1h-14.1l-6.5-18.1H652.2z M676,91.4
			c-5.6-16.3-9-26-10.7-32h-0.1c-1.7,6.7-5.5,18.1-10,32H676z"/>
		<path class="st52" d="M715.9,60.5h-22.1V49.4h57.5v11.1h-22v60.1h-13.4V60.5z"/>
		<path class="st52" d="M771.5,100.1c1.7,7.6,7.1,11.3,16,11.3c9.2,0,13-3.9,13-9.6c0-6.3-3.5-9.3-16.3-12.3
			c-18.5-4.4-23.6-11-23.6-20.7c0-11.8,8.8-20.3,25.3-20.3c18.2,0,25.6,10,26.5,20.1H799c-0.9-5-3.9-10-13.5-10
			c-7.1,0-11.2,3-11.2,8.7c0,5.5,3.4,7.8,15.2,10.5c20.5,4.9,24.8,12.7,24.8,22.4c0,12.5-9.4,21.4-27.7,21.4
			c-18,0-26.9-9.2-28.5-21.5H771.5z"/>
	</g>
</g>
</svg>
