<svg width="32" height="33" viewBox="0 0 32 33" fill="none" xmlns="http://www.w3.org/2000/svg">
<g id="points-reward 1">
<path id="Vector" d="M17.5523 27.3391C16.7813 26.1197 16.3563 24.7023 16.3254 23.2469C15.7548 23.3398 15.1442 23.4081 14.5073 23.45V23.5653C14.5073 23.5724 14.5073 23.5802 14.5073 23.5873L14.5029 23.664H14.5079V27.7954C15.5337 27.7355 16.5524 27.5828 17.5523 27.3391Z" fill="#FFDD46"/>
<path id="Vector_2" d="M16.3273 23.3108C16.3273 23.229 16.3229 23.1465 16.3229 23.064C16.3208 21.5086 16.7691 19.9881 17.6104 18.6973C16.7167 18.9325 15.6542 19.0937 14.5073 19.1697V19.2851C14.5073 19.2922 14.5073 19.2999 14.5073 19.307L14.5029 19.3837H14.5079V23.5151C15.1517 23.472 15.7623 23.4023 16.3273 23.3108Z" fill="#FFDD46"/>
<path id="Vector_3" d="M17.5625 18.7758C18.194 17.7809 19.0356 16.9462 20.0243 16.3344V12.9274H19.9618C19.9306 13.443 19.1993 13.9483 17.9431 14.3241C16.9818 14.6122 15.7893 14.8055 14.4912 14.8906C14.5041 14.9389 14.5106 14.9888 14.5106 15.0389V19.2347C15.539 19.1744 16.5602 19.0209 17.5625 18.7758Z" fill="#FFDD46"/>
<path id="Vector_4" d="M19.959 8.64697C19.9277 9.1626 19.1965 9.66791 17.9402 10.0437C16.614 10.4407 14.8496 10.6598 12.9721 10.6598C11.0946 10.6598 9.33021 10.4407 8.00396 10.0437C6.75021 9.66791 6.01646 9.16066 5.98584 8.64697H5.92334V12.8938C5.9237 12.9451 5.92999 12.9961 5.94209 13.0459C6.45396 13.0104 6.98271 12.9918 7.52146 12.9918C9.39646 12.9918 11.1633 13.2109 12.4896 13.6079C13.7046 13.9714 14.4271 14.4581 14.5027 14.9544C17.6615 14.7455 20.0246 13.9018 20.0246 12.8919V8.64697H19.959Z" fill="#FFDD46"/>
<path id="Vector_5" d="M19.9601 4.3667C19.9601 4.89199 19.2239 5.41406 17.9376 5.80078C16.6114 6.19781 14.847 6.41631 12.9695 6.41631C11.092 6.41631 9.33014 6.19459 8.00389 5.80078C6.72014 5.41406 5.98389 4.89844 5.98389 4.36992H5.92139V8.61609C5.92139 9.78205 9.07826 10.7276 12.972 10.7276C16.8658 10.7276 20.0226 9.78205 20.0226 8.61609V4.3667H19.9601Z" fill="#FFDD46"/>
<path id="Vector_6" d="M12.972 6.47754C16.866 6.47754 20.0226 5.53248 20.0226 4.3667C20.0226 3.20091 16.866 2.25586 12.972 2.25586C9.07806 2.25586 5.92139 3.20091 5.92139 4.3667C5.92139 5.53248 9.07806 6.47754 12.972 6.47754Z" fill="#FFDD46"/>
<path id="Vector_7" d="M14.5065 23.5995C14.4752 24.1151 13.744 24.6198 12.4877 24.9962C11.1615 25.3932 9.39709 25.6117 7.51959 25.6117C5.64209 25.6117 3.87521 25.3945 2.55146 24.9962C1.29521 24.6211 0.562715 24.1125 0.532715 23.5995H0.470215V27.8437C0.470215 29.0097 3.62709 29.9546 7.52084 29.9546C11.4146 29.9546 14.5702 29.0116 14.5702 27.8437V23.5995H14.5065Z" fill="#FFDD46"/>
<path id="Vector_8" d="M14.5065 19.3192C14.4752 19.8348 13.744 20.3395 12.4877 20.7159C11.1615 21.1129 9.39709 21.3314 7.51959 21.3314C5.64209 21.3314 3.87521 21.1129 2.55146 20.7159C1.29521 20.3395 0.562715 19.8323 0.532715 19.3192H0.470215V23.5654C0.470215 24.7313 3.62709 25.6762 7.52084 25.6762C11.4146 25.6762 14.5715 24.7313 14.5715 23.5654V19.3192H14.5065Z" fill="#FFDD46"/>
<path id="Vector_9" d="M14.5075 15.0388C14.5075 15.5635 13.7712 16.0849 12.4875 16.469C11.1613 16.8661 9.39688 17.0852 7.51937 17.0852C5.64187 17.0852 3.8775 16.8661 2.55125 16.469C1.2675 16.0823 0.53125 15.5635 0.53125 15.0388H0.46875V19.285C0.46875 20.4509 3.625 21.3984 7.51937 21.3984C11.4137 21.3984 14.57 20.4535 14.57 19.2876V15.0388H14.5075Z" fill="#FFDD46"/>
<path id="Vector_10" d="M7.51937 17.1497C11.4133 17.1497 14.57 16.2046 14.57 15.0388C14.57 13.873 11.4133 12.928 7.51937 12.928C3.62542 12.928 0.46875 13.873 0.46875 15.0388C0.46875 16.2046 3.62542 17.1497 7.51937 17.1497Z" fill="#FFDD46"/>
<path id="Vector_11" d="M23.9275 30.9053C28.1269 30.9053 31.5312 27.3946 31.5312 23.0639C31.5312 18.7332 28.1269 15.2225 23.9275 15.2225C19.728 15.2225 16.3237 18.7332 16.3237 23.0639C16.3237 27.3946 19.728 30.9053 23.9275 30.9053Z" fill="#FFDD46"/>
<path id="Vector_12" d="M28.5323 9.94769L28.8948 10.6309C28.9526 10.7396 29.0393 10.8291 29.1448 10.8887L29.8073 11.2625C29.9056 11.3181 29.9876 11.3999 30.0447 11.4993C30.1018 11.5987 30.132 11.7122 30.132 11.8278C30.132 11.9434 30.1018 12.0568 30.0447 12.1563C29.9876 12.2557 29.9056 12.3375 29.8073 12.393L29.1448 12.7669C29.0391 12.8262 28.9523 12.9157 28.8948 13.0247L28.5323 13.7079C28.4784 13.8093 28.3991 13.8938 28.3027 13.9527C28.2062 14.0116 28.0962 14.0427 27.9841 14.0427C27.8721 14.0427 27.762 14.0116 27.6656 13.9527C27.5692 13.8938 27.4899 13.8093 27.436 13.7079L27.0735 13.0247C27.0164 12.9154 26.9295 12.8258 26.8235 12.7669L26.161 12.393C26.0627 12.3375 25.9807 12.2557 25.9236 12.1563C25.8665 12.0568 25.8363 11.9434 25.8363 11.8278C25.8363 11.7122 25.8665 11.5987 25.9236 11.4993C25.9807 11.3999 26.0627 11.3181 26.161 11.2625L26.8235 10.8887C26.9292 10.8294 27.016 10.7399 27.0735 10.6309L27.436 9.94769C27.4899 9.84633 27.5692 9.76176 27.6656 9.70285C27.762 9.64394 27.8721 9.61285 27.9841 9.61285C28.0962 9.61285 28.2062 9.64394 28.3027 9.70285C28.3991 9.76176 28.4784 9.84633 28.5323 9.94769ZM25.0791 7.22391H24.396V6.52008C24.396 6.39187 24.3466 6.26892 24.2587 6.17826C24.1708 6.08761 24.0516 6.03668 23.9273 6.03668C23.8029 6.03668 23.6837 6.08761 23.5958 6.17826C23.5079 6.26892 23.4585 6.39187 23.4585 6.52008V7.22391H22.7754C22.6511 7.22391 22.5318 7.27484 22.4439 7.36549C22.356 7.45615 22.3066 7.5791 22.3066 7.7073C22.3066 7.83551 22.356 7.95846 22.4439 8.04912C22.5318 8.13977 22.6511 8.1907 22.7754 8.1907H23.4585V8.89453C23.4585 9.02274 23.5079 9.14569 23.5958 9.23635C23.6837 9.327 23.8029 9.37793 23.9273 9.37793C24.0516 9.37793 24.1708 9.327 24.2587 9.23635C24.3466 9.14569 24.396 9.02274 24.396 8.89453V8.1907H25.0791C25.2035 8.1907 25.3227 8.13977 25.4106 8.04912C25.4985 7.95846 25.5479 7.83551 25.5479 7.7073C25.5479 7.5791 25.4985 7.45615 25.4106 7.36549C25.3227 7.27484 25.2035 7.22391 25.0791 7.22391ZM28.8679 2.96033H28.1873V2.25586C28.1873 2.12765 28.1379 2.0047 28.05 1.91405C27.9621 1.82339 27.8428 1.77246 27.7185 1.77246C27.5942 1.77246 27.475 1.82339 27.3871 1.91405C27.2992 2.0047 27.2498 2.12765 27.2498 2.25586V2.96033H26.5623C26.4379 2.96033 26.3187 3.01126 26.2308 3.10192C26.1429 3.19257 26.0935 3.31553 26.0935 3.44373C26.0935 3.57194 26.1429 3.69489 26.2308 3.78554C26.3187 3.8762 26.4379 3.92713 26.5623 3.92713H27.2498V4.63096C27.2498 4.75916 27.2992 4.88212 27.3871 4.97277C27.475 5.06343 27.5942 5.11436 27.7185 5.11436C27.8428 5.11436 27.9621 5.06343 28.05 4.97277C28.1379 4.88212 28.1873 4.75916 28.1873 4.63096V3.92713H28.8704C28.9947 3.92713 29.1139 3.8762 29.2018 3.78554C29.2898 3.69489 29.3391 3.57194 29.3391 3.44373C29.3391 3.31553 29.2898 3.19257 29.2018 3.10192C29.1139 3.01126 28.9947 2.96033 28.8704 2.96033H28.8679Z" fill="#FFDD46"/>
<path id="Vector_13" d="M23.9275 14.9003C22.6784 14.8992 21.4471 15.2045 20.335 15.7911V12.9274C20.335 12.9165 20.335 12.9049 20.335 12.8939V8.64708C20.335 8.63612 20.335 8.62452 20.335 8.61292V4.36675C20.335 3.60942 19.4888 2.97069 17.8875 2.51888C17.8075 2.49631 17.7221 2.50744 17.6501 2.5498C17.5781 2.59217 17.5253 2.66231 17.5034 2.74479C17.4816 2.82726 17.4923 2.91533 17.5334 2.98961C17.5745 3.06388 17.6425 3.11829 17.7225 3.14085C19.1894 3.55464 19.71 4.05995 19.71 4.36546C19.71 5.11247 17.1475 6.15403 12.9719 6.15403C8.79625 6.15403 6.23375 5.11376 6.23375 4.36675C6.23375 3.61974 8.7975 2.57817 12.9719 2.57817C13.8438 2.57639 14.715 2.62696 15.5812 2.72964C15.6223 2.73533 15.6641 2.73253 15.7042 2.7214C15.7442 2.71027 15.7817 2.69104 15.8144 2.66482C15.8472 2.63861 15.8746 2.60593 15.895 2.5687C15.9153 2.53146 15.9283 2.49042 15.9332 2.44795C15.938 2.40548 15.9346 2.36245 15.9232 2.32135C15.9118 2.28025 15.8925 2.2419 15.8666 2.20855C15.8406 2.1752 15.8085 2.14751 15.7721 2.12709C15.7356 2.10667 15.6956 2.09394 15.6544 2.08962C14.7639 1.98383 13.8682 1.93175 12.9719 1.93364C11.06 1.93364 9.25875 2.15794 7.89937 2.56464C6.39937 3.01581 5.60875 3.63649 5.60875 4.36933V8.6155C5.60875 8.6271 5.60875 8.6387 5.60875 8.64966V12.6857C4.42687 12.7837 3.34062 12.9712 2.44687 13.2387C0.946875 13.6899 0.15625 14.3106 0.15625 15.0434V19.2896C0.15625 19.298 0.15625 19.3063 0.15625 19.3147C0.15625 19.3231 0.15625 19.3205 0.15625 19.3237V23.5699C0.15625 23.5783 0.15625 23.5867 0.15625 23.595C0.15625 23.6034 0.15625 23.6008 0.15625 23.6041V27.8438C0.15625 28.5741 0.948125 29.1973 2.44687 29.6485C3.80562 30.0558 5.6075 30.2795 7.51937 30.2795C9.43125 30.2795 11.2331 30.0558 12.5919 29.6485C13.9181 29.2515 14.6906 28.7178 14.8506 28.0939C15.7142 28.0289 16.572 27.8996 17.4175 27.7072C18.1924 28.8621 19.2433 29.7913 20.4683 30.4049C21.6934 31.0184 23.0513 31.2957 24.4106 31.2097C25.77 31.1238 27.0849 30.6775 28.2281 29.9142C29.3713 29.1509 30.3041 28.0962 30.9364 26.8523C31.5687 25.6084 31.8791 24.2172 31.8375 22.8134C31.7959 21.4096 31.4038 20.0406 30.699 18.8388C29.9943 17.637 29.0007 16.6431 27.8145 15.9531C26.6282 15.2632 25.2894 14.9005 23.9275 14.9003ZM17.375 18.4916C16.5548 18.6864 15.7217 18.8178 14.8825 18.8848V15.249C16.7294 15.0943 18.7244 14.676 19.71 13.9348V16.1578C18.7848 16.7625 17.99 17.5569 17.375 18.4916ZM16.0144 23.033C15.6498 23.0859 15.2735 23.1288 14.8856 23.1619V19.5293C15.5728 19.4742 16.2565 19.3806 16.9337 19.249C16.3321 20.4141 16.0154 21.713 16.0112 23.033H16.0144ZM0.784375 20.326C1.85438 21.1329 4.14187 21.5886 6.41437 21.6943H6.42875C6.51163 21.6963 6.59187 21.6642 6.65183 21.6052C6.71178 21.5461 6.74653 21.4649 6.74844 21.3795C6.75034 21.294 6.71925 21.2113 6.66199 21.1494C6.60473 21.0876 6.526 21.0518 6.44312 21.0498C2.75 20.8764 0.78125 19.9161 0.78125 19.2851V16.0772C1.16562 16.3673 1.72375 16.6244 2.44687 16.841C3.80562 17.2477 5.6075 17.472 7.51937 17.472C9.43125 17.472 11.2331 17.2477 12.5919 16.841C13.315 16.6244 13.8731 16.3673 14.2575 16.0772V19.2851C14.2575 19.9135 12.2912 20.8764 8.59875 21.0485C8.51587 21.0505 8.43714 21.0863 8.37988 21.1481C8.32263 21.21 8.29153 21.2927 8.29344 21.3782C8.29534 21.4637 8.3301 21.5448 8.39005 21.6039C8.45 21.6629 8.53024 21.695 8.61312 21.693H8.625C10.8975 21.5873 13.1875 21.1317 14.255 20.3247V23.566C14.255 24.3131 11.6925 25.3546 7.51687 25.3546C3.34125 25.3546 0.78125 24.3124 0.78125 23.5654L0.784375 20.326ZM7.89937 6.16886C9.25875 6.57556 11.06 6.79985 12.9719 6.79985C14.8837 6.79985 16.6875 6.57427 18.0444 6.16886C18.7675 5.9523 19.3256 5.69513 19.71 5.40509V8.61292C19.71 9.35993 17.1475 10.4021 12.9719 10.4021C8.79625 10.4021 6.23375 9.35993 6.23375 8.61292V5.40509C6.61812 5.69513 7.17625 5.9523 7.89937 6.16886ZM6.23375 9.64933C6.61812 9.94001 7.17625 10.1972 7.89937 10.4131C9.25875 10.8204 11.06 11.0447 12.9719 11.0447C14.8837 11.0447 16.6856 10.8204 18.0444 10.4131C18.7675 10.1972 19.3256 9.94001 19.71 9.64933V12.892C19.71 13.2735 19.0125 13.6693 18.36 13.9116C17.45 14.25 16.1881 14.4956 14.7862 14.6084C14.5362 14.0624 13.7862 13.5926 12.5919 13.2342C11.2331 12.8275 9.43125 12.6032 7.51937 12.6032C7.08187 12.6032 6.65437 12.6155 6.23375 12.6387V9.64933ZM7.51937 13.2477C11.6944 13.2477 14.2575 14.29 14.2575 15.037C14.2575 15.784 11.695 16.8255 7.51937 16.8255C3.34375 16.8255 0.78125 15.7853 0.78125 15.0389C0.78125 14.2925 3.34437 13.2497 7.51937 13.2497V13.2477ZM7.51937 29.6324C3.34437 29.6343 0.78125 28.5927 0.78125 27.8438V24.6018C1.16562 24.8918 1.72375 25.149 2.44687 25.3656C3.80625 25.7723 5.6075 25.9966 7.51937 25.9966C9.43125 25.9966 11.2331 25.7723 12.5919 25.3656C13.315 25.149 13.8731 24.8918 14.2575 24.6018V27.8438C14.2575 28.5927 11.6944 29.6343 7.51937 29.6343V29.6324ZM14.8825 27.441V23.809C15.2762 23.7762 15.6612 23.7336 16.0331 23.6801C16.1214 24.8935 16.4732 26.0709 17.0625 27.1251C16.3429 27.2777 15.6149 27.3841 14.8825 27.4435V27.441ZM23.9275 30.5831C22.4854 30.5831 21.0757 30.1421 19.8767 29.3159C18.6777 28.4896 17.7431 27.3153 17.1913 25.9414C16.6394 24.5675 16.495 23.0556 16.7763 21.597C17.0577 20.1385 17.7521 18.7987 18.7718 17.7471C19.7915 16.6956 21.0907 15.9795 22.505 15.6893C23.9194 15.3992 25.3854 15.5481 26.7177 16.1172C28.05 16.6863 29.1888 17.6501 29.99 18.8866C30.7911 20.1231 31.2187 21.5768 31.2187 23.064C31.2164 25.0574 30.4475 26.9685 29.0806 28.3781C27.7138 29.7877 25.8605 30.5807 23.9275 30.5831Z" fill="black"/>
<path id="Vector_14" d="M24.6417 22.7416H24.3292C24.2463 22.7416 24.1669 22.7756 24.1082 22.836C24.0496 22.8964 24.0167 22.9784 24.0167 23.0639C24.0167 23.1494 24.0496 23.2313 24.1082 23.2918C24.1669 23.3522 24.2463 23.3861 24.3292 23.3861H24.6417C25.0598 23.3861 25.4607 23.2149 25.7563 22.91C26.0519 22.6052 26.218 22.1918 26.218 21.7606C26.218 21.3295 26.0519 20.9161 25.7563 20.6112C25.4607 20.3064 25.0598 20.1351 24.6417 20.1351H22.7461C22.6632 20.1351 22.5837 20.1691 22.5251 20.2295C22.4665 20.29 22.4336 20.3719 22.4336 20.4574V25.6704C22.4336 25.7558 22.4665 25.8378 22.5251 25.8982C22.5837 25.9587 22.6632 25.9926 22.7461 25.9926C22.829 25.9926 22.9085 25.9587 22.9671 25.8982C23.0257 25.8378 23.0586 25.7558 23.0586 25.6704V20.7797H24.6417C24.894 20.7797 25.136 20.883 25.3144 21.067C25.4927 21.251 25.593 21.5005 25.593 21.7606C25.593 22.0208 25.4927 22.2703 25.3144 22.4543C25.136 22.6383 24.894 22.7416 24.6417 22.7416Z" fill="black"/>
<path id="Vector_15" d="M29.2558 23.876C29.2156 23.8674 29.1741 23.8671 29.1338 23.8751C29.0934 23.883 29.055 23.8991 29.0207 23.9224C28.9864 23.9457 28.9569 23.9757 28.9338 24.0108C28.9108 24.0458 28.8947 24.0852 28.8864 24.1267C28.6312 25.3917 27.9302 26.5141 26.9189 27.277C25.9077 28.0398 24.658 28.3888 23.4117 28.2565C22.1654 28.1242 21.0109 27.52 20.1715 26.5607C19.3322 25.6015 18.8676 24.3553 18.8676 23.0632C18.8676 21.7712 19.3322 20.525 20.1715 19.5657C21.0109 18.6065 22.1654 18.0023 23.4117 17.87C24.658 17.7377 25.9077 18.0867 26.9189 18.8495C27.9302 19.6124 28.6312 20.7348 28.8864 21.9998C28.8946 22.0412 28.9107 22.0806 28.9336 22.1157C28.9566 22.1508 28.9861 22.1809 29.0203 22.2042C29.0545 22.2276 29.0929 22.2437 29.1332 22.2518C29.1735 22.2598 29.2149 22.2596 29.2552 22.2511C29.2954 22.2427 29.3336 22.2261 29.3676 22.2024C29.4016 22.1787 29.4308 22.1484 29.4534 22.1131C29.476 22.0777 29.4917 22.0382 29.4995 21.9966C29.5073 21.9551 29.5071 21.9123 29.4989 21.8709C29.2127 20.4494 28.4255 19.1879 27.2895 18.3304C26.1535 17.4729 24.7494 17.0804 23.349 17.2287C21.9486 17.3771 20.6513 18.0558 19.708 19.1335C18.7648 20.2112 18.2427 21.6115 18.2427 23.0632C18.2427 24.515 18.7648 25.9152 19.708 26.993C20.6513 28.0707 21.9486 28.7494 23.349 28.8978C24.7494 29.0461 26.1535 28.6536 27.2895 27.7961C28.4255 26.9386 29.2127 25.6771 29.4989 24.2556C29.5153 24.1721 29.499 24.0852 29.4534 24.014C29.4078 23.9429 29.3368 23.8932 29.2558 23.876Z" fill="black"/>
</g>
</svg>
