<svg xmlns="http://www.w3.org/2000/svg" xmlns:xlink="http://www.w3.org/1999/xlink" viewBox="0 0 208.42 171.86"><defs><style>.cls-1{fill:url(#Безымянный_градиент_149);}</style><linearGradient id="Безымянный_градиент_149" y1="85.93" x2="208.42" y2="85.93" gradientUnits="userSpaceOnUse"><stop offset="0" stop-color="#fff"/><stop offset="0" stop-color="#3d53cf"/><stop offset="0.06" stop-color="#2765d0"/><stop offset="0.12" stop-color="#007dce"/><stop offset="0.18" stop-color="#009ac0"/><stop offset="0.23" stop-color="#009ac0"/><stop offset="0.29" stop-color="#00b0c7"/><stop offset="0.35" stop-color="#01b2ad"/><stop offset="0.41" stop-color="#73ab91"/><stop offset="0.47" stop-color="#a8a87a"/><stop offset="0.52" stop-color="#d6a564"/><stop offset="0.58" stop-color="#ff8f59"/><stop offset="0.64" stop-color="#ff7f70"/><stop offset="0.7" stop-color="#ff6e84"/><stop offset="0.76" stop-color="#ff6d85"/><stop offset="0.81" stop-color="#ed5d9e"/><stop offset="0.87" stop-color="#cf51ab"/><stop offset="0.93" stop-color="#bf4abb"/><stop offset="1" stop-color="#a945c1"/></linearGradient></defs><g id="Слой_2" data-name="Слой 2"><g id="Слой_1-2" data-name="Слой 1"><path class="cls-1" d="M202.6,75.42,114.49,4.13l-.33-.27a15.12,15.12,0,0,0-3.42-2.31l-.45-.2-.48-.21c-.2-.09-.41-.16-.63-.24l-.44-.16L108.3.61A12.83,12.83,0,0,0,107,.3a4.21,4.21,0,0,0-.49-.09c-.4-.08-.8-.12-1.19-.16l-.54,0a8.28,8.28,0,0,0-1.22,0l-.54,0c-.41,0-.82.09-1.21.16l-.42.08c-.12,0-.24.05-.36.07-.32.07-.64.16-.94.25l-.45.13L99.25.9c-.19.07-.38.15-.57.21a15.16,15.16,0,0,0-4.41,2.75l-.34.28L5.83,75.42c-13.11,13.11,0,23.32,0,23.32l85.78,68c4.43,3.56,8.55,4.93,12.1,5.11h1c3.55-.18,7.66-1.55,12.1-5.11l85.78-68S215.71,88.53,202.6,75.42ZM80.94,40.34,102.4,23.05a3.83,3.83,0,0,1,1.82-.78,3.76,3.76,0,0,1,1.81.78l21.46,17.29a1.42,1.42,0,0,1,0,2.18L106.6,60.3a3.67,3.67,0,0,1-4.76,0L80.91,42.52A1.41,1.41,0,0,1,80.94,40.34Zm77.46,71.29-52,37.79a3.63,3.63,0,0,1-4.3,0L50,111.63a1.42,1.42,0,0,1-.06-2.25l11.88-9.71a1.38,1.38,0,0,1,1.74,0l26,20.86c7.4,6.07,12.08,7,13.94,7.14h1.28l.65-.06c2.17-.27,6.64-1.59,13.34-7.08l26-20.86a1.37,1.37,0,0,1,1.73,0l11.89,9.71A1.42,1.42,0,0,1,158.4,111.63Zm28.47-21.08-9.4,7.3a1.43,1.43,0,0,1-1.73,0L154.82,81.18s-10.11-9.44-19.55,0l-30.54,24.91-.52.12-.52-.12L73.16,81.18c-9.44-9.44-19.55,0-19.55,0L32.69,97.84a1.43,1.43,0,0,1-1.73,0l-9.4-7.3a1.4,1.4,0,0,1,0-2.2l39.7-31.72a3.75,3.75,0,0,1,4.7,0l27,21.88c5.6,4.46,9.45,5.1,11,5.14h.54c1.56,0,5.42-.69,11-5.14l27-21.88a3.75,3.75,0,0,1,4.7,0l39.7,31.72A1.4,1.4,0,0,1,186.87,90.55Z"/></g></g></svg>