<svg width="40" height="40" viewBox="0 0 40 40" fill="none" xmlns="http://www.w3.org/2000/svg">
<g id="discord 1">
<path id="Vector" d="M31.4857 3.33337H8.51445C8.0518 3.33448 7.5939 3.42669 7.1669 3.60477C6.7399 3.78284 6.35215 4.04327 6.0258 4.3712C5.69945 4.69913 5.44089 5.08813 5.26488 5.51599C5.08887 5.94384 4.99886 6.40218 5 6.86482V30.0419C4.99885 30.5046 5.08885 30.9629 5.26484 31.3907C5.44084 31.8186 5.69939 32.2076 6.02573 32.5355C6.35207 32.8635 6.73981 33.1239 7.1668 33.302C7.5938 33.48 8.05169 33.5723 8.51433 33.5734H27.9543L27.0457 30.4019L29.24 32.4419L31.3142 34.3619L35 37.619V6.86482C35.0011 6.40218 34.9111 5.94385 34.7351 5.516C34.5591 5.08814 34.3006 4.69914 33.9743 4.37121C33.6479 4.04328 33.2602 3.78285 32.8332 3.60477C32.4062 3.4267 31.9483 3.33448 31.4857 3.33337ZM24.8685 25.722C24.8685 25.722 24.2514 24.9848 23.7371 24.3334C24.9797 24.0408 26.0788 23.3182 26.84 22.2934C26.2232 22.7039 25.5618 23.0432 24.8685 23.3047C24.0711 23.6452 23.237 23.8925 22.3829 24.0419C20.9147 24.3122 19.409 24.3064 17.9429 24.0248C17.0822 23.8564 16.2387 23.6096 15.4229 23.2877C14.9928 23.1223 14.5747 22.9276 14.1713 22.7048C14.12 22.6705 14.0685 22.6534 14.0171 22.619C13.9913 22.6062 13.9681 22.5888 13.9485 22.5677C13.64 22.3963 13.4685 22.2763 13.4685 22.2763C14.2022 23.2796 15.2633 23.9951 16.4685 24.299C15.9543 24.9506 15.32 25.7219 15.32 25.7219C14.3017 25.7493 13.2922 25.526 12.3805 25.0717C11.4688 24.6173 10.6827 23.9458 10.0914 23.1163C10.1471 19.6409 10.9912 16.2235 12.56 13.1219C13.9406 12.0376 15.6238 11.4087 17.3771 11.3219L17.5485 11.5277C15.8989 11.9358 14.3596 12.7026 13.04 13.7734C13.04 13.7734 13.4171 13.5677 14.0513 13.2763C15.2836 12.7138 16.597 12.3493 17.9429 12.1963C18.0388 12.1763 18.1364 12.1648 18.2343 12.1619C19.3831 12.0123 20.5457 12.0008 21.6972 12.1277C23.5081 12.3345 25.2609 12.8936 26.8571 13.7734C25.6044 12.7537 24.1495 12.0116 22.5885 11.5963L22.8285 11.322C24.5819 11.4087 26.2651 12.0377 27.6457 13.122C29.2146 16.2236 30.0587 19.6409 30.1143 23.1163C29.5183 23.945 28.7288 24.6156 27.8146 25.0697C26.9004 25.5238 25.889 25.7478 24.8685 25.722ZM16.8971 17.7163C16.4317 17.7163 15.9854 17.9012 15.6563 18.2302C15.3273 18.5593 15.1424 19.0057 15.1424 19.471C15.1424 19.9364 15.3273 20.3827 15.6564 20.7118C15.9855 21.0409 16.4318 21.2258 16.8972 21.2258C17.3626 21.2258 17.8089 21.0409 18.138 20.7118C18.467 20.3827 18.6519 19.9364 18.6519 19.471C18.6519 19.0057 18.4671 18.5593 18.138 18.2302C17.8089 17.9012 17.3625 17.7163 16.8971 17.7163ZM23.1543 17.7163C22.7711 17.6838 22.3871 17.7678 22.0524 17.9572C21.7177 18.1467 21.448 18.4327 21.2787 18.778C21.1093 19.1233 21.0481 19.5116 21.1031 19.8922C21.1581 20.2729 21.3268 20.628 21.587 20.9112C21.8472 21.1944 22.1868 21.3924 22.5614 21.4793C22.936 21.5662 23.3282 21.538 23.6865 21.3984C24.0448 21.2588 24.3526 21.0142 24.5697 20.6967C24.7867 20.3792 24.9028 20.0036 24.9028 19.619C24.913 19.3793 24.8759 19.1398 24.7936 18.9144C24.7112 18.689 24.5853 18.482 24.4229 18.3053C24.2605 18.1286 24.0649 17.9856 23.8472 17.8845C23.6296 17.7835 23.3941 17.7263 23.1543 17.7163Z" fill="#6563FF"/>
<path id="Vector_2" d="M24.8685 25.722C24.8685 25.722 24.2514 24.9848 23.7371 24.3334C24.9797 24.0408 26.0788 23.3182 26.84 22.2934C26.2232 22.7039 25.5618 23.0432 24.8685 23.3047C24.0711 23.6451 23.237 23.8925 22.3829 24.0419C20.9147 24.3122 19.4089 24.3064 17.9429 24.0248C17.0822 23.8563 16.2387 23.6096 15.4229 23.2877C14.9928 23.1223 14.5747 22.9275 14.1713 22.7048C14.12 22.6705 14.0685 22.6533 14.0171 22.619C13.9913 22.6062 13.9681 22.5888 13.9485 22.5677C13.64 22.3962 13.4685 22.2762 13.4685 22.2762C14.2022 23.2796 15.2633 23.9951 16.4685 24.299C15.9543 24.9506 15.32 25.7219 15.32 25.7219C14.3017 25.7493 13.2922 25.526 12.3805 25.0717C11.4688 24.6173 10.6827 23.9458 10.0914 23.1162C10.1471 19.6409 10.9912 16.2235 12.56 13.1219C13.9406 12.0376 15.6238 11.4086 17.3771 11.3219L17.5485 11.5277C15.8989 11.9358 14.3596 12.7026 13.04 13.7733C13.04 13.7733 13.4171 13.5677 14.0513 13.2762C15.2836 12.7137 16.597 12.3492 17.9429 12.1962C18.0388 12.1763 18.1364 12.1648 18.2343 12.1619C19.3831 12.0123 20.5457 12.0008 21.6972 12.1277C23.5081 12.3345 25.2609 12.8935 26.8571 13.7733C25.6044 12.7537 24.1495 12.0116 22.5885 11.5962L22.8285 11.322C24.5819 11.4087 26.2651 12.0376 27.6457 13.122C29.2146 16.2236 30.0587 19.6409 30.1143 23.1162C29.5183 23.945 28.7288 24.6156 27.8146 25.0697C26.9004 25.5238 25.889 25.7478 24.8685 25.722ZM16.8971 17.7162C16.4317 17.7162 15.9854 17.9011 15.6563 18.2302C15.3273 18.5593 15.1424 19.0056 15.1424 19.471C15.1424 19.9364 15.3273 20.3827 15.6564 20.7118C15.9855 21.0409 16.4318 21.2257 16.8972 21.2257C17.3626 21.2257 17.8089 21.0409 18.138 20.7118C18.467 20.3827 18.6519 19.9364 18.6519 19.471C18.6519 19.0056 18.4671 18.5593 18.138 18.2302C17.8089 17.9011 17.3625 17.7162 16.8971 17.7162ZM23.1543 17.7162C22.7711 17.6838 22.3871 17.7678 22.0524 17.9572C21.7177 18.1466 21.448 18.4327 21.2787 18.778C21.1093 19.1232 21.0481 19.5116 21.1031 19.8922C21.1581 20.2728 21.3268 20.628 21.587 20.9112C21.8472 21.1943 22.1868 21.3923 22.5614 21.4793C22.936 21.5662 23.3282 21.538 23.6865 21.3984C24.0448 21.2587 24.3526 21.0142 24.5697 20.6967C24.7867 20.3792 24.9028 20.0036 24.9028 19.619C24.913 19.3792 24.8759 19.1398 24.7936 18.9144C24.7112 18.689 24.5853 18.482 24.4229 18.3053C24.2605 18.1286 24.0649 17.9856 23.8472 17.8845C23.6296 17.7834 23.3941 17.7263 23.1543 17.7162Z" fill="#D8D8FF"/>
</g>
</svg>
