<svg width="60" height="60" viewBox="0 0 60 60" fill="none" xmlns="http://www.w3.org/2000/svg">
<g id="campaign 1">
<g id="Group">
<g id="Group_2">
<path id="Vector" fill-rule="evenodd" clip-rule="evenodd" d="M23.7066 15.0056C23.0728 14.9962 23.0728 15.9524 23.7066 15.9431H26.5116C27.1453 15.9524 27.1453 14.9962 26.5116 15.0056H23.7066ZM22.7691 13.1306C22.1344 13.1212 22.1344 14.0774 22.7691 14.0681H29.3241C29.9578 14.0774 29.9578 13.1212 29.3241 13.1306H22.7691Z" fill="#E9EDED"/>
<path id="Vector_2" fill-rule="evenodd" clip-rule="evenodd" d="M24.6694 14.0692C24.7937 14.0709 24.9122 14.1219 24.9989 14.2111C25.0856 14.3002 25.1333 14.4201 25.1316 14.5444C25.1298 14.6688 25.0788 14.7872 24.9896 14.8739C24.9005 14.9606 24.7806 15.0084 24.6563 15.0067H26.5256C26.4013 15.011 26.2804 14.9657 26.1894 14.8809C26.0984 14.7961 26.0448 14.6786 26.0405 14.5543C26.0361 14.43 26.0813 14.309 26.1662 14.218C26.251 14.1271 26.3685 14.0735 26.4928 14.0692H24.6694ZM20.9006 11.2567C20.2659 11.2473 20.2659 12.2035 20.9006 12.1942H21.8381C22.4719 12.2035 22.4719 11.2473 21.8381 11.2567H20.9006ZM23.7131 11.2567C23.5888 11.2567 23.4696 11.306 23.3817 11.3939C23.2938 11.4818 23.2444 11.6011 23.2444 11.7254C23.2444 11.8497 23.2938 11.9689 23.3817 12.0568C23.4696 12.1447 23.5888 12.1942 23.7131 12.1942H28.4006C28.525 12.1942 28.6442 12.1447 28.7321 12.0568C28.82 11.9689 28.8694 11.8497 28.8694 11.7254C28.8694 11.6011 28.82 11.4818 28.7321 11.3939C28.6442 11.306 28.525 11.2567 28.4006 11.2567H23.7131Z" fill="#E9EDED"/>
<path id="Vector_3" fill-rule="evenodd" clip-rule="evenodd" d="M25.5731 11.2556C25.4488 11.2556 25.3296 11.305 25.2417 11.3929C25.1538 11.4809 25.1044 11.6 25.1044 11.7244C25.1044 11.8487 25.1538 11.968 25.2417 12.0559C25.3296 12.1438 25.4488 12.1931 25.5731 12.1931H30.2606C30.385 12.1931 30.5042 12.1438 30.5921 12.0559C30.68 11.968 30.7294 11.8487 30.7294 11.7244C30.7294 11.6 30.68 11.4809 30.5921 11.3929C30.5042 11.305 30.385 11.2556 30.2606 11.2556H25.5731ZM24.1875 12.1941C24.3118 12.1959 24.4304 12.2469 24.517 12.3361C24.6037 12.4252 24.6514 12.5451 24.6497 12.6694C24.648 12.7937 24.5969 12.9122 24.5078 12.9989C24.4186 13.0856 24.2987 13.1334 24.1744 13.1316H26.0438C25.9194 13.136 25.7985 13.0907 25.7075 13.0059C25.6165 12.921 25.563 12.8036 25.5586 12.6793C25.5543 12.5549 25.5995 12.434 25.6843 12.343C25.7691 12.252 25.8866 12.1985 26.0109 12.1941H24.1875ZM27.0056 12.1941C27.0672 12.195 27.128 12.2079 27.1845 12.2323C27.2411 12.2566 27.2923 12.2919 27.3352 12.3361C27.3781 12.3802 27.4119 12.4323 27.4346 12.4895C27.4574 12.5467 27.4687 12.6079 27.4678 12.6694C27.467 12.731 27.454 12.7917 27.4296 12.8483C27.4053 12.9048 27.37 12.956 27.3259 12.9989C27.2818 13.0418 27.2296 13.0757 27.1724 13.0985C27.1152 13.1212 27.0541 13.1325 26.9925 13.1316H28.8619C28.7376 13.136 28.6166 13.0907 28.5256 13.0059C28.4346 12.921 28.3811 12.8036 28.3767 12.6793C28.3724 12.5549 28.4176 12.434 28.5024 12.343C28.5872 12.252 28.7047 12.1985 28.8291 12.1941H27.0056ZM28.3866 15.0066C27.7528 14.9973 27.7528 15.9535 28.3866 15.9441C29.0203 15.9535 29.0203 14.9973 28.3866 15.0066Z" fill="#E9EDED"/>
</g>
<g id="Group_3">
<g id="Group_4">
<path id="Vector_4" fill-rule="evenodd" clip-rule="evenodd" d="M5.82838 53.8529C5.82838 53.8529 8.66995 41.3391 13.3734 40.8966C16.6996 40.7785 19.2778 43.7279 18.9346 46.4579C18.4668 51.166 5.82838 53.8529 5.82838 53.8529Z" fill="#FFEB3B"/>
<path id="Vector_5" fill-rule="evenodd" clip-rule="evenodd" d="M11.7319 47.9992C11.7319 47.9992 12.0272 41.6449 14.9747 41.3665C17.0578 41.2934 18.6731 43.1411 18.4584 44.8511C18.1659 47.8014 11.7319 47.9992 11.7319 47.9992Z" fill="#FF9800"/>
</g>
<path id="Vector_6" fill-rule="evenodd" clip-rule="evenodd" d="M50.0231 9.91602C30.1359 9.91602 19.5291 25.8254 16.215 35.7694C19.5291 36.4322 23.5069 40.4101 24.1697 43.7251C34.1128 40.4101 50.0231 29.8032 50.0231 9.91602Z" fill="#E9EDED"/>
<g id="Group_5">
<path id="Vector_7" fill-rule="evenodd" clip-rule="evenodd" d="M5.82838 53.8529C5.82838 53.8529 8.66995 41.3391 13.3734 40.8966C16.6996 40.7785 19.2778 43.7279 18.9346 46.4579C18.4668 51.166 5.82838 53.8529 5.82838 53.8529Z" fill="#FFEB3B"/>
<path id="Vector_8" fill-rule="evenodd" clip-rule="evenodd" d="M11.7319 47.9992C11.7319 47.9992 12.0272 41.6449 14.9747 41.3665C17.0578 41.2934 18.6731 43.1411 18.4584 44.8511C18.1659 47.8014 11.7319 47.9992 11.7319 47.9992Z" fill="#FF9800"/>
</g>
<path id="Vector_9" fill-rule="evenodd" clip-rule="evenodd" d="M20.7263 26.5575C19.0228 29.3119 17.0888 32.8556 16.2375 35.7694C15.5569 35.4994 15.5813 35.1 14.2528 35.0944C12.9263 35.085 10.8713 37.007 9.18095 37.9632C10.2834 33.7445 12.9834 25.8057 14.9738 25.5694C16.3022 25.1635 19.6116 25.846 20.7263 26.5575ZM33.3834 39.2326C30.6788 40.8639 27.0797 42.8598 24.1641 43.7063C24.4331 44.387 24.8269 44.3691 24.8363 45.6919C24.8419 47.0175 22.9172 49.0707 21.9581 50.7591C26.1797 49.6632 34.1222 46.9763 34.3622 44.9869C34.7709 43.6594 34.0931 40.3472 33.3834 39.2316V39.2326Z" fill="#F44336"/>
<path id="Vector_10" fill-rule="evenodd" clip-rule="evenodd" d="M15.9581 36.9216C17.7441 37.3398 19.1006 38.4113 20.2922 39.5935C21.4856 40.7738 22.5122 42.0676 22.8441 43.7241L21.3525 44.5117L15.2747 38.5164L15.9581 36.9216Z" fill="#263238"/>
<path id="Vector_11" fill-rule="evenodd" clip-rule="evenodd" d="M50.0231 9.91687C45.8363 9.91687 42.0666 10.6294 38.6841 11.8341L48.1059 21.255C49.3106 17.8725 50.0231 14.1028 50.0231 9.91687Z" fill="#F44336"/>
<path id="Vector_12" d="M34.2585 23.2783C34.7179 24.9928 36.4801 26.0102 38.1945 25.5508C39.9089 25.0914 40.9263 23.3292 40.467 21.6148C40.0076 19.9004 38.2454 18.8829 36.5309 19.3423C34.8165 19.8017 33.7991 21.5639 34.2585 23.2783Z" fill="#81D4FA"/>
<path id="Vector_13" d="M38.6841 11.8341C38.0353 12.0657 37.395 12.3094 36.7744 12.5766L47.3634 23.1647C47.6308 22.5362 47.8782 21.8993 48.105 21.255L38.6841 11.8341Z" fill="#263238"/>
<path id="Vector_14" d="M39.0113 19.6866C38.7343 19.5214 38.4341 19.3988 38.1206 19.3229C38.4948 19.7127 38.7647 20.1905 38.9053 20.7122C39.0146 21.1199 39.0426 21.5452 38.9875 21.9637C38.9325 22.3821 38.7955 22.7857 38.5845 23.1513C38.3735 23.5168 38.0925 23.8372 37.7576 24.0941C37.4227 24.3511 37.0405 24.5396 36.6328 24.6488C36.1133 24.7879 35.5673 24.7943 35.0447 24.6676C35.4426 25.0833 35.9448 25.3846 36.4989 25.5399C37.053 25.6953 37.6387 25.699 38.1947 25.5507C39.0179 25.3301 39.7198 24.7915 40.146 24.0535C40.5721 23.3154 40.6877 22.4383 40.4672 21.6151C40.251 20.8077 39.7288 20.1154 39.0113 19.6866Z" fill="#BBDEFB"/>
<path id="Vector_15" d="M40.0153 19.7944C39.3111 19.0933 38.3578 18.6996 37.3641 18.6996C36.3703 18.6996 35.417 19.0933 34.7128 19.7944C34.0116 20.4986 33.618 21.4519 33.618 22.4457C33.618 23.4395 34.0116 24.3927 34.7128 25.0969C35.417 25.7981 36.3703 26.1918 37.3641 26.1918C38.3578 26.1918 39.3111 25.7981 40.0153 25.0969C40.7165 24.3927 41.1102 23.4395 41.1102 22.4457C41.1102 21.4519 40.7165 20.4986 40.0153 19.7944ZM39.2578 20.5519C39.5075 20.8001 39.7056 21.0952 39.8408 21.4202C39.976 21.7452 40.0456 22.0937 40.0456 22.4457C40.0456 22.7977 39.976 23.1463 39.8408 23.4713C39.7056 23.7963 39.5075 24.0913 39.2578 24.3395C39.0097 24.5891 38.7146 24.7873 38.3896 24.9225C38.0646 25.0577 37.7161 25.1273 37.3641 25.1273C37.0121 25.1273 36.6635 25.0577 36.3385 24.9225C36.0135 24.7873 35.7185 24.5891 35.4703 24.3395C35.2207 24.0913 35.0225 23.7963 34.8873 23.4713C34.7521 23.1463 34.6825 22.7977 34.6825 22.4457C34.6825 22.0937 34.7521 21.7452 34.8873 21.4202C35.0225 21.0952 35.2207 20.8001 35.4703 20.5519C35.7185 20.3023 36.0135 20.1042 36.3385 19.969C36.6635 19.8338 37.0121 19.7641 37.3641 19.7641C37.7161 19.7641 38.0646 19.8338 38.3896 19.969C38.7146 20.1042 39.0097 20.3023 39.2578 20.5519Z" fill="#607D8B"/>
<path id="Vector_16" fill-rule="evenodd" clip-rule="evenodd" d="M50.0231 9.91693C49.6509 9.91693 49.2891 9.93292 48.9234 9.94417C48.3591 28.7064 33.5316 38.9345 23.7516 42.4135C23.9391 42.857 24.0834 43.2967 24.1688 43.726C34.1138 40.411 50.0231 29.8041 50.0231 9.91693ZM20.1141 37.682C19.0078 36.5757 17.7206 35.6561 16.4541 35.117C16.3772 35.3326 16.2844 35.5603 16.2141 35.7703C17.6719 36.0619 19.245 37.0126 20.6203 38.2473C20.4516 38.0589 20.2941 37.861 20.1141 37.682Z" fill="#B0BEC5"/>
<path id="Vector_17" fill-rule="evenodd" clip-rule="evenodd" d="M50.0231 9.91687C49.651 9.91687 49.2891 9.93286 48.9235 9.94411C48.811 13.6913 48.121 17.0935 47.0241 20.1741L48.105 21.255C48.5344 20.0522 48.8972 18.7988 49.1916 17.4957C49.2103 17.4085 49.2328 17.3222 49.2525 17.2331C49.3191 16.9247 49.3772 16.6097 49.4363 16.2956C49.5279 15.8059 49.6086 15.3143 49.6781 14.8209C49.7156 14.5509 49.7503 14.2772 49.7813 14.0034C49.8113 13.7484 49.8394 13.4934 49.8638 13.2347C49.8928 12.9159 49.9172 12.5935 49.9388 12.2691C49.9528 12.0507 49.9697 11.8332 49.98 11.6119C50.0072 11.0473 50.0222 10.4821 50.0231 9.91687Z" fill="#D22E2E"/>
<path id="Vector_18" fill-rule="evenodd" clip-rule="evenodd" d="M47.0231 20.1742C46.795 20.8173 46.5465 21.4529 46.2778 22.0801L47.3634 23.1648C47.3653 23.1648 47.3653 23.1554 47.3672 23.1526C47.6325 22.5358 47.8753 21.9001 48.105 21.2551L47.0241 20.1732L47.0231 20.1742ZM20.2922 39.5926C20.1591 39.4604 20.0138 39.3386 19.8759 39.2092C20.8388 40.248 21.6356 41.387 21.9178 42.797L20.4244 43.5854L15.2794 38.5079L15.2756 38.5173L21.3516 44.5126L22.8441 43.7252C22.5131 42.0677 21.4866 40.7729 20.2922 39.5926Z" fill="#455A64"/>
<path id="Vector_19" fill-rule="evenodd" clip-rule="evenodd" d="M25.4766 36.4725C26.2706 35.4356 27.0675 32.8922 27.0675 32.8922C27.0675 32.8922 24.525 33.691 23.4881 34.4841C19.8694 37.2506 14.8594 45.0797 14.8594 45.0797C14.8594 45.0797 22.7063 40.0884 25.4766 36.4725Z" fill="#F44336"/>
<path id="Vector_20" fill-rule="evenodd" clip-rule="evenodd" d="M17.5294 42.6047C17.3873 42.4579 17.2374 42.319 17.0803 42.1885C17.9578 43.2197 18.4303 44.5276 18.2709 45.7904C17.8566 49.966 8.31469 52.4306 6.06094 52.9622C5.98969 53.2462 5.82657 53.8491 5.82657 53.8491C5.82657 53.8491 18.4669 51.1622 18.9347 46.4531C19.1053 45.0891 18.5466 43.6697 17.5294 42.6047Z" fill="#FFC107"/>
<path id="Vector_21" fill-rule="evenodd" clip-rule="evenodd" d="M17.5791 42.436C17.4478 42.2991 17.2969 42.181 17.1441 42.0657C17.6241 42.69 17.8866 43.4457 17.7938 44.1844C17.5538 46.6013 13.365 47.1497 11.7975 47.2772C11.7647 47.6166 11.7319 47.9953 11.7319 47.9953C11.7319 47.9953 18.165 47.7985 18.4575 44.8482C18.5653 43.9932 18.2166 43.1026 17.5791 42.436Z" fill="#F57C00"/>
<path id="Vector_22" fill-rule="evenodd" clip-rule="evenodd" d="M27.0684 32.8922C27.0684 32.8922 26.5238 33.0825 26.04 33.2579C25.7381 34.0941 25.3172 35.1526 24.8138 35.8098C22.9181 38.2829 18.7669 41.3007 16.2581 43.0238C15.4594 44.1807 14.8594 45.0797 14.8594 45.0797C14.8594 45.0797 22.7063 40.0884 25.4766 36.4725C26.2706 35.4356 27.0684 32.8922 27.0684 32.8922ZM33.3834 39.2316C33.2953 39.285 33.1903 39.3441 33.1003 39.3985C33.6403 40.8526 34.0331 43.2422 33.7003 44.325C33.4828 46.124 26.9953 48.48 22.6284 49.7278C22.3884 50.0785 22.1466 50.4291 21.9591 50.7591C26.1797 49.6641 34.1231 46.9781 34.3622 44.9878C34.7709 43.6603 34.0931 40.3472 33.3834 39.2316Z" fill="#D22E2E"/>
</g>
<g id="Group_6">
<path id="Vector_23" fill-rule="evenodd" clip-rule="evenodd" d="M42.4566 42.1931C41.8228 42.1837 41.8228 43.1399 42.4566 43.1306H45.2616C45.8953 43.1399 45.8953 42.1837 45.2616 42.1931H42.4566ZM41.5191 40.3181C40.8844 40.3087 40.8844 41.2649 41.5191 41.2556H48.0741C48.7078 41.2649 48.7078 40.3087 48.0741 40.3181H41.5191Z" fill="#E9EDED"/>
<path id="Vector_24" fill-rule="evenodd" clip-rule="evenodd" d="M43.4194 41.2567C43.5437 41.2584 43.6622 41.3094 43.7489 41.3986C43.8356 41.4877 43.8833 41.6076 43.8816 41.7319C43.8798 41.8563 43.8288 41.9747 43.7396 42.0614C43.6505 42.1481 43.5306 42.1959 43.4063 42.1942H45.2756C45.1513 42.1985 45.0304 42.1532 44.9394 42.0684C44.8484 41.9836 44.7948 41.8661 44.7905 41.7418C44.7861 41.6175 44.8313 41.4965 44.9162 41.4055C45.001 41.3146 45.1185 41.261 45.2428 41.2567H43.4194ZM39.6506 38.4442C39.0159 38.4348 39.0159 39.391 39.6506 39.3817H40.5881C41.2219 39.391 41.2219 38.4348 40.5881 38.4442H39.6506ZM42.4631 38.4442C42.3388 38.4442 42.2196 38.4935 42.1317 38.5814C42.0438 38.6693 41.9944 38.7886 41.9944 38.9129C41.9944 39.0372 42.0438 39.1564 42.1317 39.2443C42.2196 39.3322 42.3388 39.3817 42.4631 39.3817H47.1506C47.2749 39.3817 47.3942 39.3322 47.4821 39.2443C47.57 39.1564 47.6194 39.0372 47.6194 38.9129C47.6194 38.7886 47.57 38.6693 47.4821 38.5814C47.3942 38.4935 47.2749 38.4442 47.1506 38.4442H42.4631Z" fill="#E9EDED"/>
<path id="Vector_25" fill-rule="evenodd" clip-rule="evenodd" d="M44.3231 38.4431C44.1988 38.4431 44.0796 38.4925 43.9917 38.5804C43.9038 38.6684 43.8544 38.7875 43.8544 38.9119C43.8544 39.0362 43.9038 39.1555 43.9917 39.2434C44.0796 39.3313 44.1988 39.3806 44.3231 39.3806H49.0106C49.1349 39.3806 49.2542 39.3313 49.3421 39.2434C49.43 39.1555 49.4794 39.0362 49.4794 38.9119C49.4794 38.7875 49.43 38.6684 49.3421 38.5804C49.2542 38.4925 49.1349 38.4431 49.0106 38.4431H44.3231ZM42.9375 39.3816C43.0618 39.3834 43.1804 39.4344 43.267 39.5236C43.3537 39.6127 43.4014 39.7326 43.3997 39.8569C43.398 39.9812 43.3469 40.0997 43.2578 40.1864C43.1686 40.2731 43.0487 40.3209 42.9244 40.3191H44.7938C44.6694 40.3235 44.5485 40.2782 44.4575 40.1934C44.3665 40.1085 44.3129 39.9911 44.3086 39.8668C44.3042 39.7424 44.3495 39.6215 44.4343 39.5305C44.5191 39.4395 44.6366 39.386 44.7609 39.3816H42.9375ZM45.7556 39.3816C45.8172 39.3825 45.878 39.3954 45.9345 39.4198C45.9911 39.4441 46.0422 39.4794 46.0852 39.5236C46.1281 39.5677 46.1619 39.6198 46.1846 39.677C46.2074 39.7342 46.2187 39.7954 46.2178 39.8569C46.217 39.9185 46.204 39.9792 46.1796 40.0358C46.1553 40.0923 46.12 40.1435 46.0759 40.1864C46.0317 40.2293 45.9796 40.2632 45.9224 40.286C45.8652 40.3087 45.8041 40.32 45.7425 40.3191H47.6119C47.4876 40.3235 47.3666 40.2782 47.2756 40.1934C47.1846 40.1085 47.1311 39.9911 47.1267 39.8668C47.1224 39.7424 47.1676 39.6215 47.2524 39.5305C47.3372 39.4395 47.4547 39.386 47.5791 39.3816H45.7556ZM47.1366 42.1941C46.5028 42.1848 46.5028 43.141 47.1366 43.1316C47.7703 43.141 47.7703 42.1848 47.1366 42.1941Z" fill="#E9EDED"/>
</g>
<path id="Vector_26" d="M30.2616 7.03784H32.1366M31.1991 6.10034V7.97534" stroke="#F44336" stroke-linecap="round" stroke-linejoin="round"/>
<path id="Vector_27" d="M16.7494 11.1806L18.0759 9.85498M16.7503 9.85498L18.0759 11.1806" stroke="#546E7A" stroke-linecap="round" stroke-linejoin="round"/>
<path id="Vector_28" d="M19.296 20.8291C19.6621 21.1952 20.2557 21.1952 20.6219 20.8291C20.988 20.463 20.988 19.8694 20.6219 19.5032C20.2557 19.1371 19.6621 19.1371 19.296 19.5032C18.9299 19.8694 18.9299 20.463 19.296 20.8291Z" stroke="#FFC107" stroke-linecap="round" stroke-linejoin="round"/>
<path id="Vector_29" d="M43.1475 47.9334L41.5238 48.8709M42.8044 49.214L41.8669 47.5903" stroke="#F44336" stroke-linecap="round" stroke-linejoin="round"/>
<path id="Vector_30" d="M53.7009 38.52L52.3753 39.8457M53.7009 39.8457L52.3753 38.52" stroke="#546E7A" stroke-linecap="round" stroke-linejoin="round"/>
<path id="Vector_31" d="M45.5109 31.4453C45.0107 31.3113 44.4967 31.6081 44.3627 32.1082C44.2287 32.6083 44.5254 33.1224 45.0256 33.2564C45.5257 33.3904 46.0398 33.0936 46.1738 32.5935C46.3078 32.0933 46.011 31.5793 45.5109 31.4453Z" stroke="#FFC107" stroke-linecap="round" stroke-linejoin="round"/>
</g>
</g>
</svg>
