<svg width="43" height="42" viewBox="0 0 43 42" fill="none" xmlns="http://www.w3.org/2000/svg">
<g id="website 1">
<path id="Vector" d="M21.5 4.5769C12.2712 4.5769 4.76251 12.0856 4.76251 21.3144C4.76251 30.5432 12.2712 38.0519 21.5 38.0519C30.7288 38.0519 38.2375 30.5432 38.2375 21.3144C38.2375 12.0856 30.7288 4.5769 21.5 4.5769ZM21.5 35.4769C19.6134 35.4769 17.5791 32.4951 16.5697 27.7519H26.432C25.4209 32.4951 23.3866 35.4769 21.5017 35.4769H21.5ZM16.1492 25.1769C16.0067 23.9632 15.9208 22.6774 15.9208 21.3144C15.9208 19.9514 16.0067 18.6656 16.1492 17.4519H26.8526C26.9951 18.6656 27.0809 19.9514 27.0809 21.3144C27.0809 22.6774 26.9951 23.9632 26.8526 25.1769H16.1492ZM7.33751 21.3144C7.33751 19.9737 7.53665 18.681 7.88685 17.4519H13.5536C13.4214 18.6862 13.3458 19.9737 13.3458 21.3144C13.3458 22.6551 13.4214 23.9426 13.5536 25.1769H7.88685C7.53665 23.9478 7.33751 22.6551 7.33751 21.3144ZM21.5 7.1519C23.3866 7.1519 25.4209 10.1338 26.4303 14.8769H16.568C17.5791 10.1338 19.6134 7.1519 21.4983 7.1519H21.5ZM29.4465 17.4519H35.1132C35.4634 18.681 35.6625 19.9737 35.6625 21.3144C35.6625 22.6551 35.4634 23.9478 35.1132 25.1769H29.4465C29.5786 23.9426 29.6542 22.6551 29.6542 21.3144C29.6542 19.9737 29.5786 18.6862 29.4465 17.4519ZM34.0986 14.8769H29.0688C28.5521 12.1783 27.7109 9.87282 26.6328 8.12869C29.8688 9.39387 32.5244 11.8092 34.0986 14.8769ZM16.3672 8.12869C15.2891 9.87282 14.4479 12.1783 13.9312 14.8769H8.9014C10.4756 11.8092 13.1313 9.39387 16.3672 8.12869ZM8.9014 27.7519H13.9312C14.4479 30.4505 15.2891 32.756 16.3672 34.5001C13.1313 33.2349 10.4756 30.8196 8.9014 27.7519ZM26.6328 34.5001C27.7109 32.756 28.5521 30.4505 29.0688 27.7519H34.0986C32.5244 30.8196 29.8688 33.2349 26.6328 34.5001Z" fill="url(#paint0_linear_168_390)"/>
</g>
<defs>
<linearGradient id="paint0_linear_168_390" x1="9.67046" y1="33.144" x2="33.3296" y2="9.48485" gradientUnits="userSpaceOnUse">
<stop stop-color="#5433FF"/>
<stop offset="1" stop-color="#20BDFF"/>
</linearGradient>
</defs>
</svg>
